<?xml version="1.0" encoding="utf-8"?>
<!-- Generator: Adobe Illustrator 18.0.0, SVG Export Plug-In . SVG Version: 6.00 Build 0)  -->
<!DOCTYPE svg PUBLIC "-//W3C//DTD SVG 1.1//EN" "http://www.w3.org/Graphics/SVG/1.1/DTD/svg11.dtd">
<svg version="1.1" id="Layer_1" xmlns="http://www.w3.org/2000/svg" xmlns:xlink="http://www.w3.org/1999/xlink" x="0px" y="0px"
	 viewBox="0 0 1105.6 792" enable-background="new 0 0 1105.6 792" xml:space="preserve">
<g opacity="0.6">
	<g>
		<path fill="none" stroke="#000000" stroke-miterlimit="10" d="M237.7,194.7c-5.1-2.5-20-12.5,4.5-16.5c0,0,16.5-0.5,25-7.5
			c0,0,20-18.5,24,4c0,0,3,21.5-13,25S242.7,197.2,237.7,194.7z"/>
		<path fill="none" stroke="#000000" stroke-miterlimit="10" d="M231.2,165.8c0,0,19.1-0.7,35.3-7.8c1.5-0.6,5.9-3.7,11-6.2
			c5.1-2.5,21-8.7,23.6,10.7c0,0,4.4,37.6-11.9,44.1c-10,3.9-29.1,5.9-40.1,2.8c-11.1-3.1-21.8-9.9-25.7-12.3
			c-2.4-1.5-13.8-9.9-12.5-19.1C211.4,175.8,214.4,164.8,231.2,165.8z"/>
		<path fill="none" stroke="#000000" stroke-miterlimit="10" d="M220.3,153.4c0,0,22.6,0.8,45.7-8.1c3-1.1,8.4-4.2,14.5-7.2
			c4.1-2,27.8-13.2,30.8,12.1c0,0,5.8,54.2-10.9,63.1c-12,6.4-41.6,10.8-56.1,5.9c-14.6-4.9-29.7-16.2-34.9-19.9
			c-1.9-1.3-17.7-13.8-15.8-28.2C193.7,169.3,196,149.7,220.3,153.4z"/>
		<path fill="none" stroke="#000000" stroke-miterlimit="10" d="M209.4,140.9c0,0,26.1,2.4,56-8.4c4.5-1.6,11-4.8,18-8.3
			c3.1-1.5,34.7-17.7,37.9,13.6c0,0,7.4,71.1-9.8,82.2c-14,9-54,15.6-72.1,8.9c-18.1-6.7-38.6-21.4-44.2-27.4
			c-1.6-0.8-21.5-17.8-19.2-37.3C176.1,162.9,177.7,134.7,209.4,140.9z"/>
		<path fill="none" stroke="#000000" stroke-miterlimit="10" d="M198.5,128.5c0,0,29.6,4,66.3-8.7c6-2.1,13.5-5.4,21.4-9.3
			c2-1,41.6-22.3,45,15.1c0,0,9.1,88-8.8,101.2c-15.8,11.7-66.4,20.4-88,11.9c-21.6-8.5-46.8-27.4-53.5-34.9
			c-1-0.5-25.4-21.7-22.6-46.4C158.5,156.4,159.4,119.6,198.5,128.5z"/>
		<path fill="none" stroke="#000000" stroke-miterlimit="10" d="M187.6,116c0,0,33,5.6,76.6-9c7.5-2.5,16.1-6,24.9-10.3
			c1-0.5,48.5-26.8,52.2,16.5c0,0,10.9,105-7.7,120.3c-17.6,14.5-78.9,25.2-104,15c-25.2-10.2-55.1-33.4-62.7-42.5
			c-0.5-0.3-29.2-25.6-26-55.6C140.9,150,141,104.6,187.6,116z"/>
		<path fill="none" stroke="#000000" stroke-miterlimit="10" d="M176.7,103.6c0,0,50.7,10,115.3-20.7c0,0,55.3-31.3,59.3,18
			c0,0,12.7,122-6.7,139.3c-19.3,17.3-91.3,30-120,18c-28.7-12-63.3-39.3-72-50c0,0-29.3-29.3-29.3-64.7
			C123.3,143.6,122.7,89.6,176.7,103.6z"/>
	</g>
	<g>
		<path fill="none" stroke="#000000" stroke-miterlimit="10" d="M265.6,414.8c0,0,6.5-4.4,15.3-6.7c8.7-2.3,19.7-2.6,28.4,5.6
			c0,0,8.2,8.5,13.8,17.3c5.6,8.9,8.6,18.1-1.8,19.8c0,0-16.3-5.6-31.4-12.8C274.8,430.7,260.9,421.7,265.6,414.8z"/>
		<path fill="none" stroke="#000000" stroke-miterlimit="10" d="M242.8,410c-0.1-9.7,20.2-5.9,35.9-12.8c6.6-2.9,21.4,1.2,38.6,9
			c0,0,14.7,7.7,22.1,23.8c3.8,8.1,6.8,17.2,6.7,24.5c-0.1,7.2-3.2,12.7-11.4,13.9c-4.2,0.6-23-4.7-41.2-11
			c-9-3.1-17.9-6.5-23.9-11.5c-6.2-5.1-12.6-10.1-17.8-15.5C245.8,423.9,242.9,417.3,242.8,410z"/>
		<path fill="none" stroke="#000000" stroke-miterlimit="10" d="M220,405.2c-1.7-19.4,30.9-23,56.6-19c5.2-1.4,23.2,5,48.8,12.4
			c0,0,21.1,6.9,30.5,30.2c4.7,11.7,8.6,25.2,8.3,36.1c-0.3,10.8-4.5,19.1-16,20.8c-8.4,1.2-30.1-3.2-51-9.1
			c-14-3.9-27.6-8.9-36-16.8c-8.6-8-18.2-15.7-26.1-24.1C226.5,426.5,221,416.6,220,405.2z"/>
		<path fill="none" stroke="#000000" stroke-miterlimit="10" d="M197.2,400.4c-3.6-28.9,43.1-32.3,77.2-25.2
			c3.5-0.9,25,8.9,59.1,15.7c0,0,27.6,6.1,38.8,36.6c5.6,15.3,10.3,33.1,9.9,47.7c-0.4,14.5-5.9,25.6-20.5,27.7
			c-12.6,1.8-37.2-1.4-60.8-7.2c-19-4.6-37.3-11.3-48.2-22.1c-11-10.8-23.7-21.2-34.4-32.7C207.1,429.1,199.1,416,197.2,400.4z"/>
		<path fill="none" stroke="#000000" stroke-miterlimit="10" d="M174.4,395.6c-5.5-38.5,55.3-41.7,97.9-31.3
			c1.7-0.5,26.7,12.7,69.3,19.1c0,0,34,5.3,47.2,43.1c6.6,18.9,12.1,41.1,11.5,59.3c-0.6,18.1-7.3,32.1-25.1,34.7
			c-16.8,2.4-44.3,0.4-70.6-5.3c-24-5.2-47.1-13.7-60.4-27.3c-13.4-13.7-29.3-26.7-42.7-41.3C187.8,431.7,177.2,415.4,174.4,395.6z"
			/>
		<path fill="none" stroke="#000000" stroke-miterlimit="10" d="M270.1,353.3c0,0,28.5,16.5,79.5,22.5c0,0,40.5,4.5,55.5,49.5
			c7.5,22.5,13.9,49.1,13.1,70.9c-0.8,21.7-8.6,38.6-29.6,41.6c-21,3-51.4,2.2-80.4-3.4c-29.1-5.6-56.8-16.1-72.6-32.6
			c-15.8-16.5-34.9-32.2-51-49.9c-16.1-17.6-29.2-37.1-33-61.1C144.1,342.8,219.1,339.8,270.1,353.3z"/>
	</g>
	<g>
		<path fill="none" stroke="#000000" stroke-miterlimit="10" d="M571.8,268.5c11.3-0.7,21.6-9.5,32.6-5.7c11,3.8,27,18.2,11,22.1
			c-16,3.8-32.1,4.3-39,3.8C542.8,286.5,561,269.1,571.8,268.5z"/>
		<path fill="none" stroke="#000000" stroke-miterlimit="10" d="M499.6,271.3c17.3-1.2,30.8-3.4,41.9-9.5
			c11.9-6.5,44.6-9.3,66.7-3.9c20.1,4.8,20.9,9.6,24.1,17.1c3.4,13.9,2.6,22.4-18.6,27.2c-16,3.6-13.3,4.2-31.7,1.6
			c-20.3-2.9-36.6,3.6-50.7-1.3c-22.4-7.6-34.9,2.4-39.7-4.9C463.2,291.3,484.4,271.9,499.6,271.3z"/>
		<path fill="none" stroke="#000000" stroke-miterlimit="10" d="M426.8,272.8c30.3-2.2,53.2-5,71.2-15.8
			c17.4-10.4,76.1-13.8,113.6-5.4c35.9,8.1,32.6,14.6,35.3,26.3c1,22.5-2.8,33-35.3,40.4c-28.7,6.5-19.9,7.3-53.5,1.3
			c-34.9-6.3-61.8,5.3-85.4-4.3c-39.2-16-59.7,4.4-66.3-9.8C383,294.7,407.3,273.3,426.8,272.8z"/>
		<path fill="none" stroke="#000000" stroke-miterlimit="10" d="M353.7,274.2c43.3-3.2,75.6-6.5,100.5-22.1
			c22.8-14.3,107.7-18.4,160.4-6.8c51.7,11.2,44.2,19.7,46.5,35.4c-1.4,31-8.1,43.6-52.1,53.5c-41.4,9.3-26.6,10.5-75.2,0.9
			c-49.6-9.7-87.1,7.1-120.1-7.3c-56-24.5-84.5,6.5-93-14.8C302.5,298.2,330,274.7,353.7,274.2z"/>
		<path fill="none" stroke="#000000" stroke-miterlimit="10" d="M280.7,275.6c56.3-4.1,98-8,129.8-28.4
			c28.3-18.1,139.2-23,207.2-8.3c67.5,14.5,55.9,24.7,57.7,44.6c-3.7,39.5-13.4,54.2-68.8,66.6c-54.1,12.2-33.2,13.7-97,0.6
			c-64.2-13-112.3,8.8-154.7-10.3c-72.7-33-105.9,7.1-119.6-19.7C224.6,300.1,252.6,276.1,280.7,275.6z"/>
		<path fill="none" stroke="#000000" stroke-miterlimit="10" d="M690.6,286.4c-6.1,48-18.8,64.8-85.5,79.8
			c-66.7,15-39.9,16.7-118.7,0.2c-78.9-16.5-137.5,10.7-189.4-13.3c-89.5-41.4-134.2,10.7-146.3-24.7c-8-23.4,25.6-50.9,58-51.3
			c69.3-5.1,120.4-9.4,159.1-34.7c33.7-22,170.7-27.5,254.1-9.7C705.1,250.4,689.3,262.4,690.6,286.4z"/>
	</g>
	<g>
		<path fill="none" stroke="#000000" stroke-miterlimit="10" d="M511,480.2c0,0-6-28.5,9-36s70.5,7.5,90-42
			c19.5-49.5,21-31.5,78-55.5c57-24,96,46.5,100.5,67.5c4.5,21,18,63,3,90c0,0-102,111-193.5,51S511,480.2,511,480.2z"/>
		<path fill="none" stroke="#000000" stroke-miterlimit="10" d="M622.8,409.7c15.1-41.2,18.8-27.4,66.8-46.6
			c48.5-19.2,83.1,38.1,86.3,56.9c3.5,20.3,17,57.5-0.5,83c-5.5,3.9-94.2,91.4-168.3,42.4c-73.8-48.6-70-62.4-69.8-63.6
			c0.1-0.7-4.6-24,7.4-30S607.1,452.4,622.8,409.7z"/>
		<path fill="none" stroke="#000000" stroke-miterlimit="10" d="M635.5,417.1c10.8-32.8,16.5-23.4,55.6-37.8
			c39.9-14.7,70.1,29.7,72.2,46.2c2.4,19.6,18.9,54.8-4,75.9c-9.9,9.1-86.3,71.8-143.2,33.8c-56.1-37.2-53.1-49.8-52.7-52.2
			c0.2-1.4-3.1-19.6,5.9-24.1S623.7,453,635.5,417.1z"/>
		<path fill="none" stroke="#000000" stroke-miterlimit="10" d="M648.3,424.5c6.5-24.4,14.3-19.4,44.3-28.9
			c31.4-10,57.1,21.3,58,35.6c1.3,19,16.8,48.5-7.5,68.9c-15.4,13-78.4,52-118,25.2c-38.4-25.9-36.1-37.1-35.5-40.8
			c0.4-2.1-1.7-15.1,4.3-18.1S640.4,453.7,648.3,424.5z"/>
		<path fill="none" stroke="#000000" stroke-miterlimit="10" d="M661,431.9c2.6-15.9,12.2-15.2,33.1-20c22.9-5.2,43.9,13,43.8,25
			c0,18.4,14.8,42-11,61.8c-21.3,16.4-70.6,32.4-92.8,16.6c-20.6-14.6-19.2-24.5-18.4-29.4c0.5-2.8-0.2-10.6,2.8-12.1
			S657.3,454.6,661,431.9z"/>
		<path fill="none" stroke="#000000" stroke-miterlimit="10" d="M643.1,481.2c0,0,32.2-25.8,30.6-41.9c-1.6-16.1,53.2-14.5,51.6,3.2
			c-1.6,17.7,12.9,35.4-14.5,54.8c-27.4,19.3-62.8,12.9-67.7,8.1C638.3,500.6,643.1,481.2,643.1,481.2z"/>
	</g>
	<g>
		<path fill="none" stroke="#000000" stroke-miterlimit="10" d="M392,375.7c10.2-9.9,35.6-16.3,82.5-7c44.3,8.8,84.5,19,100.6,9.3
			c14.8-8.9,37.2-4.6,28.2,16.9c-9.1,21.5-13.2,33.7-56.7,40.8c0,0-37-5.6-42,23.2c-5,28.8-86.1-5.2-88.8-25.8
			C411.4,399.3,381.7,385.6,392,375.7z"/>
		<path fill="none" stroke="#000000" stroke-miterlimit="10" d="M410.4,386c8.3-5.7,26-10.4,58.6-4c30.3,6,58,13,69.4,6.5
			c10.3-5.8,24.8-3.2,19.8,11.4c-4.9,14.5-5.8,23.6-36.2,30.1c-1.4,1.7-28.2-1.3-33.6,18.1c-5.4,19.4-62.1-3.5-64.5-17.6
			c-1.2-6.9-3.7-14.6-6.7-20.9C411.3,397.1,403.8,390.5,410.4,386z"/>
		<path fill="none" stroke="#000000" stroke-miterlimit="10" d="M428.8,396.3c5.9-1.9,16.5-4.5,34.6-1.1c16.4,3.2,31.4,6.9,38.2,3.8
			c5.8-2.7,13.9-1.3,11.5,6c0.8,8,1.6,13.6-15.7,19.3c-2.8,3.4-19.4,2.9-25.2,13c-5.8,10-38-1.5-40.2-9.4
			c-0.9-3.4-2.3-10.1-3.9-15.8C425.4,403.3,422.4,398.4,428.8,396.3z"/>
		<path fill="none" stroke="#000000" stroke-miterlimit="10" d="M439.9,425.2c0,0-1.4-5.5-1.2-10.6c0.2-5.1,2-9.8,8.5-8.1
			c3.2,0.8,7,1.4,10.6,1.9c3.7,0.5,7.2,0.9,10.1,1.6c5.8,1.3,9,3.5,4.8,8.5c-4.2,5.1-10.6,7.2-16.8,7.9
			C449.6,427.1,443.5,426.2,439.9,425.2z"/>
	</g>
	<g>
		<path fill="none" stroke="#000000" stroke-miterlimit="10" d="M506.6,549.3c0,0,16-30,40-16s52,36,80,44s87-9.5,113-15.5
			c13-3,21.8,34.9,19.5,74c-2.2,39.1-15.5,79.5-46.5,81.5s-75.5,7.8-115.5,8.9s-75.5-2.4-88.5-18.9s-26-38.5-29.5-65.1
			S481.6,584.3,506.6,549.3z"/>
		<path fill="none" stroke="#000000" stroke-miterlimit="10" d="M518.2,563.7c0,0,14.2-24.4,35.5-12.1c12.7,7.3,26.7,17.1,41.3,25.2
			c9.8,5.5,19.8,10.3,29.8,13.1c25.3,7.2,76.6-7.3,100-13c3.6-0.9,6.4,1.8,9.6,6.2c7,9.9,10.8,31.9,8.7,55.5
			c-2.9,33.7-15.5,68.9-42.3,70.6c-26.4,1.7-64.9,6.6-99.9,7.4c-34.3,0.9-64.6-2.3-76.6-16.1c-8.8-10.1-17.7-22.4-23.5-37.1
			c-2.5-6.3-4.4-13.1-5.5-20.3C492.3,620.4,497.3,593.7,518.2,563.7z"/>
		<path fill="none" stroke="#000000" stroke-miterlimit="10" d="M529.9,578.1c0,0,12.4-18.9,31.1-8.3c11,6.3,23.3,14.6,36.1,21.5
			c8.5,4.6,17.3,8.7,26,11.2c22.7,6.3,66.2-5.1,87-10.6c3.1-0.8,6,1,8.4,4.5c9.1,5.6,11.2,24.7,8.7,45
			c-3.6,28.3-15.5,58.3-38.1,59.6c-21.9,1.3-54.3,5.4-84.2,6c-28.5,0.7-53.8-2.2-64.8-13.3c-8.4-8.6-17.2-18.8-22.8-31.6
			c-2.5-5.6-4.5-11.5-5.5-18C509,625.2,513.1,603,529.9,578.1z"/>
		<path fill="none" stroke="#000000" stroke-miterlimit="10" d="M541.6,592.4c0,0,10.6-13.3,26.6-4.4c9.4,5.3,19.9,12.1,31,17.8
			c7.3,3.8,14.7,7.1,22.3,9.2c20,5.5,55.8-2.8,74-8.1c2.7-0.8,5.2,0.4,7.3,2.9c10.4,2,11.7,17.4,8.6,34.4
			c-4.2,22.9-15.5,47.7-33.8,48.7c-17.3,1-43.7,4.1-68.6,4.5c-22.8,0.4-43.1-2.1-52.9-10.5c-8.2-7-16.6-15.3-22.2-26.1
			c-2.5-4.8-4.5-10-5.5-15.7C525.7,630.1,528.8,612.3,541.6,592.4z"/>
		<path fill="none" stroke="#000000" stroke-miterlimit="10" d="M553.3,606.8c0,0,8.8-7.8,22.1-0.5c7.8,4.2,16.6,9.5,25.9,14.1
			c6,2.9,12.2,5.6,18.5,7.3c17.3,4.7,45.4-0.6,61-5.6c2.2-0.7,4.3-0.2,6.2,1.2c11.6-1.6,12.2,10.1,8.5,23.8
			c-4.8,17.5-15.5,37-29.6,37.7c-12.7,0.6-33.2,2.9-53,3c-17,0.1-32.5-1.9-41-7.7c-8-5.5-16.1-11.8-21.5-20.5
			c-2.5-4-4.6-8.4-5.6-13.5C542.5,634.9,544.5,621.7,553.3,606.8z"/>
		<path fill="none" stroke="#000000" stroke-miterlimit="10" d="M564.9,621.2c0,0,7-2.2,17.7,3.3c6.1,3.2,13.2,7,20.7,10.4
			c4.8,2.1,9.7,4,14.7,5.3c14.6,3.9,35,1.6,48-3.2c1.8-0.7,3.5-0.7,5.1-0.4c12.8-5.2,12.8,2.9,8.4,13.2
			c-5.2,12.1-15.6,26.4-25.4,26.8c-8.1,0.3-22.6,1.7-37.3,1.6c-11.3-0.1-22-1.5-29.2-4.9c-7.9-3.8-15.6-8.2-20.9-15
			c-2.5-3.2-4.6-6.9-5.6-11.2C559.4,639.7,560.3,631,564.9,621.2z"/>
		<path fill="none" stroke="#000000" stroke-miterlimit="10" d="M576.6,635.5c0,0,12.7,8,28.8,13.9c16.2,5.8,35.9,9.4,49.9,0.6
			c14.1-8.8,13.7-4.2,8.3,2.6c-5.3,6.8-15.6,15.9-21.2,15.9c-5.6,0-23.3,1.4-39-2c-7.8-1.7-15.2-4.6-20.2-9.5
			c-2.5-2.4-4.5-5.4-5.7-8.9C576.4,644.5,576,640.3,576.6,635.5z"/>
	</g>
	<g>
		<path fill="none" stroke="#000000" stroke-miterlimit="10" d="M339,547.2c0,0,26-1,75-11c22.9-4.7,57,58,54,88c0,0,6,51,20,65
			c0,0-20,79-116,25c-24-13.5-48.2-34-68.6-56.3c-20.3-22.3-36.7-46.5-45-67.3C241.8,549,257.5,520.8,339,547.2z"/>
		<path fill="none" stroke="#000000" stroke-miterlimit="10" d="M290,588.8c-12.3-31.3-1.5-20.8,63-33c1.4-0.3,22.5-0.4,60.2-6.3
			c17.6-2.7,39.8,45.2,41.6,68.6c0.1,0.9,4.8,39.9,15.2,51.1c-0.2,1.3-16.1,61.2-89.7,19.9c-19.6-11-38.9-27.4-54.9-45.4
			S296.8,606,290,588.8z"/>
		<path fill="none" stroke="#000000" stroke-miterlimit="10" d="M321.7,586.9c-7.9-21,0.6-14.4,45.3-22.6c2.7-0.5,19,0.1,45.5-1.6
			c12.4-0.8,27.7,32.4,29.1,49.1c0.2,1.7,3.5,28.8,10.3,37.1c-0.4,2.6-12.2,43.5-63.4,14.8c-15.2-8.5-29.5-20.9-41.2-34.5
			C335.7,615.5,326.8,600.5,321.7,586.9z"/>
		<path fill="none" stroke="#000000" stroke-miterlimit="10" d="M353.3,585.1c-3.8-10.5,2.6-8.1,27.7-12.2
			c4.1-0.7,15.5,0.6,30.8,3.2c7.2,1.2,15.6,19.7,16.7,29.7c0.3,2.6,2.3,17.7,5.5,23.2c-0.7,3.9-8.2,25.7-37.2,9.6
			c-10.9-6-20.1-14.3-27.5-23.6C362,605.5,356.9,595,353.3,585.1z"/>
		<path fill="none" stroke="#000000" stroke-miterlimit="10" d="M385,583.2c0,0,4.5-1.8,10-1.9s12,1.4,16,7.9
			c2,3.2,3.4,6.8,4.3,10.2c0.8,3.4,1,6.7,0.6,9.3c-0.9,5.2-4.4,8-10.9,4.5s-10.8-7.8-13.8-12.8S386.5,589.8,385,583.2z"/>
	</g>
	<g>
		<path fill="none" stroke="#000000" stroke-miterlimit="10" d="M418.3,456.9c-4.3-6.4,15,0,36.6,8.8c21.6,8.8,45.6,20,50.6,23
			c10,6,33.1,24.7,27.5,29c-15,11.5-34.5,21.5-55,74c-2.5,6.3-20.1-47.1-55.3-59.8C413.3,528.5,432.7,478.2,418.3,456.9z"/>
		<path fill="none" stroke="#000000" stroke-miterlimit="10" d="M427.6,469.2c-3.1-4.7,11.2-0.6,27.8,5.4c0.6,0.2,1.2,0.4,1.8,0.6
			c17.3,6.4,36.4,14.8,40.8,17.5c8.1,5,25.8,20.3,21.7,24.5c-4.9,5-10.7,9.6-16.9,16c-3.2,3.3-7.1,7.6-11.3,13
			c-5.6,7.2-10.6,17.1-17.3,28.6c-2.6,4.4-16.9-35.8-43.2-46.9C423.7,524.9,438.5,486,427.6,469.2z"/>
		<path fill="none" stroke="#000000" stroke-miterlimit="10" d="M436.8,481.6c-2-3.2,8.7-0.8,21.2,2.9c0.4,0.1,0.9,0.3,1.3,0.4
			c13,3.9,27.2,9.5,31,12c6.3,4,18.6,15.8,15.9,20.1c-3,4.8-7,9.1-11.1,13.4c-2.1,2.2-5.6,5.4-9.4,9.2c-4.9,4.9-10.2,11.3-15.4,18.5
			c-3.2,2-13.6-24.7-31-33.9C434,521.3,444.4,493.8,436.8,481.6z"/>
		<path fill="none" stroke="#000000" stroke-miterlimit="10" d="M446.1,493.9c-0.9-1.6,6.2-1,14.6,0.4c0.3,0.1,0.6,0.1,0.9,0.1
			c8.6,1.5,18.1,4.3,21.2,6.5c4.5,3,11.2,11.3,10.1,15.6c-1.2,4.6-3.3,8.6-5.4,10.8c-1.1,1.1-4,3.2-7.5,5.5
			c-4.1,2.7-8.9,5.9-13.5,8.4c-3.6-0.2-10.3-14.2-18.8-21C444.3,517.5,450.4,501.7,446.1,493.9z"/>
		<path fill="none" stroke="#000000" stroke-miterlimit="10" d="M455.3,506.2c0,0,3.7-1.3,8-2.2c4.3-0.8,9.3-1.2,12,0.8
			c2.7,2,3.8,6.8,4.3,11.2c0.5,4.3,0.3,8.2,0.3,8.2s-2.3,1.2-5.7,1.8c-3.3,0.6-7.7,0.6-11.7-1.8s-5.8-5-6.7-8
			S455.3,509.9,455.3,506.2z"/>
	</g>
	<g>
		<path fill="none" stroke="#000000" stroke-miterlimit="10" d="M84,257.2c0,0,69.5,48.1,65,89c-4,36-13,49,8,82s50,53,59,77
			s19,11,28,21s-4,45,3,58s66,129,142,151"/>
		<path fill="none" stroke="#000000" stroke-miterlimit="10" d="M73.5,276c0,0,24.1,17.4,44.9,41.8c11.9,14,20.6,29.3,19.7,43.7
			c-1.4,25.1-6.2,38.8,0.5,58.2c2.1,6.3,5.3,13,10,20.9c19.1,31.9,44,52.6,52.7,76.6c3.5,9.5,7.2,13.2,11,15
			c5,2.4,10.2,1.1,14.7,6.7c8.8,11.2-5.2,42.7,3.3,55.9c8.8,13.7,71.8,125.5,139.5,147.2"/>
		<path fill="none" stroke="#000000" stroke-miterlimit="10" d="M63,294.8c0,0,21.1,15.9,43.3,40.7c12.2,13.5,20.9,27.8,20.9,41.3
			c0.1,23-3.4,36.3,3.6,55.7c2.2,6.2,5.2,12.8,9.4,20.3c17.2,30.8,38,52.2,46.5,76.1c3.1,8.9,6.6,12.7,10.2,14.9
			c4.6,2.8,9.4,2.1,13.2,7.5c8.7,12.6-6.4,40.3,3.6,53.8c10.6,14.3,77.5,122,137,143.5"/>
		<path fill="none" stroke="#000000" stroke-miterlimit="10" d="M52.5,313.5c0,0,17.9,14.5,41.8,39.6c12.5,13.1,21.1,26.3,22.1,38.9
			c1.6,20.9-0.7,33.9,6.6,53.3c2.3,6.1,5.1,12.6,8.8,19.8c15.3,29.7,32,51.7,40.2,75.7c2.8,8.2,5.9,12.2,9.4,14.8
			c4.2,3.1,8.6,3.2,11.7,8.4c8.4,14-7.6,37.9,4,51.8c12.5,15,83.2,118.5,134.5,139.8"/>
		<path fill="none" stroke="#000000" stroke-miterlimit="10" d="M42,332.2c0,0,14.8,13.2,40.2,38.4c12.7,12.7,21.4,24.8,23.3,36.5
			c3.1,18.8,2,31.4,9.7,50.9c2.4,6,5,12.3,8.3,19.3c13.4,28.6,26,51.3,34,75.3c2.5,7.5,5.3,11.7,8.5,14.7c3.8,3.5,7.7,4.3,10.3,9.2
			c8.1,15.5-8.7,35.5,4.3,49.7c14.4,15.6,89,115,132,136"/>
		<path fill="none" stroke="#000000" stroke-miterlimit="10" d="M31.5,351c0,0,11.6,11.8,38.7,37.3c13,12.2,21.6,23.3,24.5,34.1
			c4.5,16.7,4.7,29,12.8,48.4c2.4,5.9,4.9,12.1,7.7,18.8c11.5,27.5,20,50.8,27.7,74.9c2.2,6.8,4.7,11.2,7.7,14.6
			c3.4,3.8,6.7,5.5,8.8,10.1c7.6,17.1-9.9,33.1,4.6,47.6C180.2,653,258.6,748.2,293.4,769"/>
		<path fill="none" stroke="#000000" stroke-miterlimit="10" d="M21,369.8c0,0,8.5,10.5,37.1,36.2c13.2,11.8,21.7,21.8,25.6,31.7
			c5.8,14.7,7.4,26.5,15.9,46c2.5,5.8,4.8,11.9,7.1,18.3c9.5,26.4,14.1,50.4,21.4,74.4c1.9,6.2,4.1,10.6,6.8,14.4
			c3,4.2,5.7,6.7,7.3,11c7,18.8-11,30.7,4.9,45.5c18.2,16.8,100.5,108,127,128.5"/>
		<path fill="none" stroke="#000000" stroke-miterlimit="10" d="M10.5,388.5c0,0,5.2,9.2,35.6,35.1c13.4,11.5,21.8,20.3,26.8,29.3
			c7.1,12.6,10.1,24.1,18.9,43.6c2.6,5.8,4.7,11.6,6.5,17.7c7.6,25.3,8.2,49.9,15.2,74c1.6,5.5,3.5,10.1,6,14.3
			c2.6,4.5,4.7,7.8,5.9,11.8c6,20.5-12.2,28.3,5.3,43.4c20.1,17.4,106.2,104.5,124.5,124.8"/>
		<path fill="none" stroke="#000000" stroke-miterlimit="10" d="M0,407.2c0,0,2,8,34,34s34,34,50,68s4,71,20,105s-12,36,10,54
			s112,101,122,121"/>
	</g>
	<g>
		<path fill="none" stroke="#000000" stroke-miterlimit="10" d="M108,133.2c0,0,12,80,101,125c12.6,6.4-92,49-115-9
			C69.6,187.7,78,113.2,108,133.2z"/>
		<path fill="none" stroke="#000000" stroke-miterlimit="10" d="M107.4,151.8c0,0,15.3,64.7,80.4,101c9.2,5.1-70.6,35.5-88.9-9.9
			C79.7,195,85.2,137.4,107.4,151.8z"/>
		<path fill="none" stroke="#000000" stroke-miterlimit="10" d="M106.8,170.3c0,0,18.8,49.4,59.8,77c5.7,3.9-49.2,22.1-62.8-10.9
			C89.7,202.3,92.3,161.6,106.8,170.3z"/>
		<path fill="none" stroke="#000000" stroke-miterlimit="10" d="M106.1,188.8c0,0,19.4,38.8,39.2,53.1c1.8,3.2-27.8,8.6-36.7-11.8
			C99.8,209.7,99.5,185.7,106.1,188.8z"/>
		<path fill="none" stroke="#000000" stroke-miterlimit="10" d="M105.5,207.3c0,0,21.8,25,18.6,29.1
			C120.8,240.4,107.9,212.9,105.5,207.3z"/>
	</g>
	<g>
		<path fill="none" stroke="#000000" stroke-miterlimit="10" d="M362,102.2c0,0-2,27.5,1.8,55.5s13.2,56.5,36.2,58.5s49,0.5,71.5-1
			s41.5-3,50.5-1c18,4,66-44,68-58c1-7-8-30-24.8-52.2S524,60.2,494,56.2s-63,7.5-88.5,20S362,102.2,362,102.2z"/>
		<path fill="none" stroke="#000000" stroke-miterlimit="10" d="M489,67.8c22.5,3,43.9,19.4,58.7,37.4
			c13.7,16.7,20.9,34.5,20.9,40.1c0.1,11.3-34.5,47.3-48.1,46c-6.7-0.7-24.9,1.6-45.7,3c-13,0.9-27.2,1.6-40.6,1.5
			c-7.8-0.1-15.1-0.6-21.2-1.5c-7.6-1.1-12.8-6-16.5-13.1c-4.8-9.2-6.9-22-8.1-34.5c-2-21.3-0.8-42.2-0.5-42.4
			c0.3-0.2,14.1-10.5,33.4-20.2C441.2,74,466.5,64.8,489,67.8z"/>
		<path fill="none" stroke="#000000" stroke-miterlimit="10" d="M484,79.2c15,2,33.2,13.3,46.1,27c10.6,11.2,16,23.9,17.1,28
			c2.1,8.6-19.2,34.3-28.2,34c-4.5,1.5-21.8,3.8-40.9,5c-11.3,0.7-23.4,1.3-34.4,1c-7.2-0.2-13.5-1-17.8-2c-5.2-1.3-8.2-5.3-10.2-11
			c-2.4-7.1-2.6-16.5-2.8-25.9c-0.4-14.6,0.2-28.8,0.7-29.3c0.5-0.5,10.1-7.5,23.2-14.4C451.4,84.2,469,77.2,484,79.2z"/>
		<path fill="none" stroke="#000000" stroke-miterlimit="10" d="M479,90.8c7.5,1,22.2,7.3,33.6,16.6c7.1,5.9,11.2,13.2,13.2,15.9
			c4.3,5.9-3.8,20.4-8.3,22c-2.2,3.2-18.6,5.9-36.1,7c-9.6,0.6-19.6,0.9-28.1,0.5c-6.7-0.3-11.9-1.3-14.3-2.5
			c-2.8-1.4-3.7-4.6-3.8-8.8c-0.1-4.9,1.6-11,2.4-17.3c0.9-7.7,1.2-15.5,2-16.2c0.8-0.7,6.1-4.6,13.1-8.6
			C461.6,94.3,471.5,89.8,479,90.8z"/>
		<path fill="none" stroke="#000000" stroke-miterlimit="10" d="M474,102.2c0,0,10.5,2.5,21,6.2s21,8.8,21,13.8s-15.5,8-31.2,9
			c-7.9,0.5-15.8,0.5-21.9,0c-6.1-0.5-10.3-1.5-10.8-3s0.6-3.9,2.6-6.6c2-2.7,4.8-5.8,7.7-8.7C468,107.2,474,102.2,474,102.2z"/>
	</g>
	<g>
		<path fill="none" stroke="#000000" stroke-miterlimit="10" d="M551,74.2c0,0,54,62,46,86s-44.3,42.7-43,49s4,8,44,11s90,18,101,14
			s23-60,57-96s-42-109-67-115c0,0-69.8-16.5-121.9-18.4S480.5,15.8,551,74.2z"/>
		<path fill="none" stroke="#000000" stroke-miterlimit="10" d="M586.2,15.2c-40.7-1-69.5,8.1-27.8,48.6c4.2,4,9.4,8.8,15.5,14.2
			c0.1,0.3,4.1,4.9,9.4,12c13.1,17.4,34.2,49,28.6,65c-1.8,5.2-5,10.1-8.8,14.6c-11.2,13.3-27.9,25.3-26.3,28.7
			c2.2,4.8,4,6.3,37.9,8.3c34.1,2,76.8,13.9,86.8,9.6c10.7-4.6,21.8-53,49.5-84.6c27.7-31.5-38.4-90.2-59.4-99.9
			C689.9,31.1,630.4,16.3,586.2,15.2z"/>
		<path fill="none" stroke="#000000" stroke-miterlimit="10" d="M605.2,25.6c-34.4-0.2-59.3,7.7-21.7,43.7
			c3.3,3.2,8.9,6.7,13.3,12.7c0.3,0.5,3.6,4.6,7.9,10.6c10.9,15.2,27.7,42.2,22.1,57.3c-1.7,4.5-4.4,8.8-7.7,12.8
			c-8.9,10.7-22.7,23.4-19.6,24.8c1.4,3.8,4.1,4.5,31.9,5.6c28.2,1.1,63.6,9.7,72.5,5.2c10.4-5.2,20.6-46,42-73.1
			c21.4-27.1-33.3-75.8-51.8-84.8C690.8,38.8,641.5,25.9,605.2,25.6z"/>
		<path fill="none" stroke="#000000" stroke-miterlimit="10" d="M624.2,36c-28.2,0.5-49.1,7.3-15.7,38.8c2.5,2.4,7.3,5.6,11.1,11.1
			c0.5,0.7,3.1,4.2,6.5,9.3c8.7,13,21.2,35.5,15.6,49.6c-1.5,3.8-3.8,7.5-6.6,11c-6.7,8-17,21.3-12.8,20.9c1.4,2.6,4.1,3.2,25.8,2.9
			c22.3-0.4,50.3,5.5,58.3,0.8c10-5.8,19.4-39,34.5-61.7C756,96,712.7,57.2,696.6,49C691.7,46.5,652.6,35.5,624.2,36z"/>
		<path fill="none" stroke="#000000" stroke-miterlimit="10" d="M643.2,46.3c-21.9,1.3-38.9,6.9-9.6,33.9c1.7,1.6,5.7,4.5,8.9,9.5
			c0.6,1,2.6,3.9,5,8c6.5,10.8,14.7,28.8,9.1,41.9c-1.3,3.1-3.2,6.2-5.5,9.1c-4.4,5.4-11.4,19.1-6.1,17c1.5,1.3,4.2,1,19.7,0.1
			c16.4-0.9,37.1,1.2,44-3.6c9.7-6.6,18.1-32.1,27-50.2c8.9-18.2-23-47.1-36.6-54.5C692.7,54.1,663.7,45.1,643.2,46.3z"/>
		<path fill="none" stroke="#000000" stroke-miterlimit="10" d="M662.3,56.7c-15.6,2.2-28.7,6.4-3.6,28.9c0.9,0.8,4,3.4,6.7,8
			c0.7,1.2,2.1,3.6,3.6,6.6c4.2,8.6,8.3,22.1,2.6,34.2c-1.1,2.4-2.6,5-4.4,7.3c-2.2,2.7-5.7,16.9,0.6,13.1c1.5,0.1,4.3-0.9,13.6-2.6
			c10.6-1.9,23.7-3.2,29.8-7.9c9.3-7.4,16.9-25.1,19.5-38.8c2.6-13.7-17.8-32.6-29.1-39.4C693.8,61.5,674.8,55,662.3,56.7z"/>
		<path fill="none" stroke="#000000" stroke-miterlimit="10" d="M683.8,91.1c0,0,4.5,4.2,6.6,11.7c2.2,7.5,2,18.5-7.2,32
			c0,0,0,14.8,7.4,9.2c3.7-2.8,14.3-9.4,23.1-17.6c8.8-8.2,15.7-18.1,12-27.3c-3.7-9.2-12.5-18.2-21.5-24.3
			c-9-6.2-18.2-9.5-22.9-7.7C672.1,70.8,661.6,74.5,683.8,91.1z"/>
	</g>
	<path fill="none" stroke="#000000" stroke-miterlimit="10" d="M111,686.2c0,0,51,32,59,44s36,54-8,22s-13-18-32-38s-90-56-90-56
		L111,686.2z"/>
	<g>
		<path fill="none" stroke="#000000" stroke-miterlimit="10" d="M715.6,229.8c0,0-37.5,76.5-4.5,99c33,22.5,29.9,5.4,61.9,34.4
			c16,14.5,59.5,36.5,105.9,50.9s95.6,21.1,123.1,5.1c55-32,39-76,76-137s38-84-4-97s-111,27-146,14S770.2,84.4,715.6,229.8z"/>
		<path fill="none" stroke="#000000" stroke-miterlimit="10" d="M748,235.3c48.6-127.7,156.9-39,187.5-27.6s91.5-23.1,128.9-11.2
			c37,11.8,36.1,31.9,4.4,85.8c-31.8,54.2-16.7,94.1-66.1,121.9c-25.1,14.1-69.8,8.3-111.6-4.4c-41.8-12.6-80.6-32.3-94.7-45.7
			c-27.6-26.2-25.1-11.3-53.6-31.3C714.3,302.8,747.6,235.6,748,235.3z"/>
		<path fill="none" stroke="#000000" stroke-miterlimit="10" d="M780.4,240.8C823,130.7,916.8,206.5,943,216.2s79-19.1,111.9-8.3
			c32,10.5,31.2,27.8,4.8,74.6c-26.7,47.3-12.4,83.3-56.2,106.8c-22.7,12.2-62.8,7.3-100-3.6c-37.2-10.9-71.3-28.3-83.5-40.6
			c-23.3-23.3-21.2-10.6-45.3-28.2C750.6,299.3,779.6,241.3,780.4,240.8z"/>
		<path fill="none" stroke="#000000" stroke-miterlimit="10" d="M812.8,246.3c36.6-92.4,115.8-29.7,137.7-21.6s66.5-15.2,94.8-5.5
			c27.1,9.3,26.4,23.7,5.2,63.4c-21.6,40.6-8.2,72.3-46.3,91.7c-20.4,10.4-55.8,6.3-88.4-2.9c-32.6-9.2-61.9-24.2-72.3-35.4
			c-18.9-20.4-17.3-10-37-25.1C786.9,295.8,811.6,247.1,812.8,246.3z"/>
		<path fill="none" stroke="#000000" stroke-miterlimit="10" d="M845.2,251.8c30.6-74.8,95.3-25.1,112.8-18.6s54.1-11.3,77.7-2.7
			c22.1,8,21.5,19.7,5.6,52.2c-16.5,33.8-4,61.4-36.4,76.6c-18,8.5-48.9,5.3-76.9-2.1c-28-7.4-52.6-20.1-61.1-30.3
			c-14.6-17.4-13.4-9.3-28.6-22C823.1,292.3,843.6,252.8,845.2,251.8z"/>
		<path fill="none" stroke="#000000" stroke-miterlimit="10" d="M877.6,257.3c24.6-57.1,74.7-20.4,87.9-15.5s41.6-7.3,60.7,0.2
			c17.1,6.7,16.6,15.7,6,41.1c-11.4,27.2,0.2,50.4-26.5,61.5c-15.7,6.5-41.9,4.3-65.3-1.4c-23.4-5.7-43.2-16-49.9-25.1
			c-10.4-14.2-9.6-8.7-20.3-18.9C859.4,288.8,875.6,258.6,877.6,257.3z"/>
		<path fill="none" stroke="#000000" stroke-miterlimit="10" d="M910.1,262.8c18.6-39.5,54.2-15.8,62.9-12.5s29.1-3.5,43.6,3
			c12.1,5.4,11.9,11.9,6.4,29.9c-6.3,20.7,4.3,39.3-16.6,46.4c-13.4,4.6-34.9,3.3-53.8-0.7c-18.8-3.9-33.9-11.7-38.8-20
			c-6.4-10.9-5.7-8-12-15.8C895.7,285.3,907.6,264.3,910.1,262.8z"/>
		<path fill="none" stroke="#000000" stroke-miterlimit="10" d="M942.5,268.3c12.6-21.8,33.7-11.2,38-9.5s16.6,0.3,26.6,5.8
			c7.2,4,9.4,8.8,6.9,18.7c1.7,14.7,8.3,27.9-6.7,31.3c-11.2,2.5-28,2.3-42.2,0.1c-14.2-2.2-24.8-7.2-27.6-14.8
			c-2.7-7.2-1.8-7.4-3.7-12.7C932,281.8,939.6,270.1,942.5,268.3z"/>
		<path fill="none" stroke="#000000" stroke-miterlimit="10" d="M988,267.2c0,0,9.5,8.1,16.8,16.2s12.2,16.2,3.2,16.2
			s-21,1.3-30.6,0.8c-9.6-0.5-16.9-2.7-16.4-9.6c0.2-3.5,2.1-6.7,4.6-9.6c2.6-2.9,5.9-5.4,9.2-7.4C981.5,269.6,988,267.2,988,267.2z
			"/>
	</g>
	<g>
		<path fill="none" stroke="#000000" stroke-miterlimit="10" d="M808.7,390.9c48,24,103.7,40.8,130.7,45.3
			c27,4.5,75.7-14.2,90.7-24.7c15-10.5,32.1-4.7,23.1,34.2c-4.5,19.5-19.6,51.6-45.8,77.3c-26.1,25.6-63.3,44.8-111.7,38.2
			c-27.7-3.8-61.5-52.4-82.3-97C792.5,419.6,784.7,378.9,808.7,390.9z"/>
		<path fill="none" stroke="#000000" stroke-miterlimit="10" d="M935.2,446.5c22.5,3.6,64.7-11.4,78.3-20
			c13.2-8.3,27.3-3.6,20.7,29.3c-3.3,16.7-15.7,43.8-37.2,66.6c-22.7,24.1-56.7,38.5-98.3,32.6c-23.7-3.3-53.5-44.9-71.5-83.1
			c-17.7-37.8-24.2-72.5-3.7-62.7C864.3,428.6,911.4,442.6,935.2,446.5z"/>
		<path fill="none" stroke="#000000" stroke-miterlimit="10" d="M931.1,456.7c18,2.8,53.6-8.7,66-15.4c11.4-6.1,22.5-2.5,18.4,24.3
			c-2.2,14-11.7,36.1-28.5,56c-19.3,22.8-50.2,32.3-84.9,27c-19.7-2.9-45.6-37.4-60.7-69.2c-14.7-30.9-19.9-59.6-2.7-52
			C871.8,442.2,910.4,453.5,931.1,456.7z"/>
		<path fill="none" stroke="#000000" stroke-miterlimit="10" d="M927,467c13.5,2,42.4-6,53.7-10.7c9.4-4,17.8-1.3,16,19.4
			c-1,11.3-7.6,28.6-19.9,45.3c-15.8,21.5-43.6,26-71.5,21.4c-15.7-2.5-37.6-29.9-50-55.3c-11.7-24-15.5-46.7-1.8-41.3
			C879.4,455.9,909.4,464.4,927,467z"/>
		<path fill="none" stroke="#000000" stroke-miterlimit="10" d="M922.8,477.2c9,1.2,31.1-3.3,41.4-6.1c7.4-2,13.3,0.1,13.6,14.5
			c0.2,8.6-3.3,21.3-11.3,34.6c-12.3,20.5-37.1,19.7-58.1,15.9c-11.7-2.1-29.7-22.4-39.2-41.4c-8.6-17.2-11.2-33.8-0.8-30.6
			C886.8,469.7,908.4,475.3,922.8,477.2z"/>
		<path fill="none" stroke="#000000" stroke-miterlimit="10" d="M918.7,487.5c4.5,0.5,20,1.1,29.1-1.4c5-1.4,9.3,1.6,11.3,9.5
			c1.6,6.2,1.4,14.3-2.6,24c-8.3,19.8-30.6,13.4-44.7,10.3c-7.6-1.7-21.7-15-28.4-27.5c-5.6-10.3-7.1-20.9,0.1-19.9
			C894,483.7,907.4,486.2,918.7,487.5z"/>
		<path fill="none" stroke="#000000" stroke-miterlimit="10" d="M914.6,497.7c0,0,8.5,0.4,16.7,3.2c8.2,2.8,16.1,8.1,14.9,17.9
			c-2.4,19.5-24,7.2-31.3,4.7c-3.6-1.3-13.6-7.6-17.7-13.6C893.2,503.8,894.9,498,914.6,497.7z"/>
	</g>
	<g>
		<path fill="none" stroke="#000000" stroke-miterlimit="10" d="M768,645.2c0,0-10-24,6-48s65-57,123-26c53.2,28.4,109-6,107,26
			s-2,142-74,126c0,0-45,4-56-10c-8-10.2-68-41-68-41l-36-23L768,645.2z"/>
		<path fill="none" stroke="#000000" stroke-miterlimit="10" d="M798.5,607.1c13.3-20,56.4-47.4,105.4-22.4
			c44.9,22.9,92.5-5.1,92.3,22.3c-0.1,9.4,0.1,26.1-2.6,43.5c-5.4,34.6-20.2,75.5-60.9,64.1c-0.6-0.2-38.5,2.7-48.7-8.8
			c-5.1-5.8-28.5-18.3-44-26.6c-8.6-4.5-15.1-7.7-15.4-7.6c-0.4,0.1-30.7-19.2-30.7-20.2c0-0.1-1.7-3.4-1.7-3.5
			C792.3,646,785.2,627.1,798.5,607.1z"/>
		<path fill="none" stroke="#000000" stroke-miterlimit="10" d="M823,616.9c10.7-16,47.7-37.8,87.7-18.8
			c36.6,17.3,76.1-4.1,77.5,18.5c0.5,8,1.3,21.9-1.1,36.1c-4.8,28.4-17.8,62.7-52,53.1c-1.2-0.3-32.1,1.5-41.3-7.5
			c-5.1-5-25-14.9-37.7-21.5c-7.1-3.6-12.6-6-13.1-5.9c-0.8,0.1-25.5-15.5-25.4-17.4c0-0.1-1.3-2.9-1.3-3
			C816.6,646.8,812.3,632.9,823,616.9z"/>
		<path fill="none" stroke="#000000" stroke-miterlimit="10" d="M847.5,626.7c8-12,39.1-28.2,70.1-15.3
			c28.2,11.7,59.7-3.1,62.8,14.8c1.1,6.7,2.5,17.7,0.4,28.6c-4.2,22.2-15.4,50-43.1,42.1c-1.7-0.5-25.8,0.3-34-6.3
			c-5.1-4.1-21.4-11.4-31.4-16.4c-5.6-2.7-10.1-4.3-10.9-4.2c-1.1,0.2-20.2-11.7-20.1-14.6c0-0.2-1-2.3-1-2.5
			C840.9,647.6,839.5,638.7,847.5,626.7z"/>
		<path fill="none" stroke="#000000" stroke-miterlimit="10" d="M872,636.5c5.3-8,30.3-18.6,52.5-11.7c19.8,6.2,43.6-2,48,11
			c1.8,5.3,3.7,13.5,2,21.2c-3.6,16-13,37.2-34.1,31.1c-2.3-0.7-19.7-0.7-26.6-5c-5.2-3.3-17.9-8-25.1-11.3c-4-1.8-7.6-2.7-8.6-2.5
			c-1.5,0.2-14.9-7.9-14.8-11.8c0-0.2-0.6-1.8-0.6-2C865.2,648.3,866.7,644.5,872,636.5z"/>
		<path fill="none" stroke="#000000" stroke-miterlimit="10" d="M896.5,646.4c2.7-4,21.6-10.7,34.8-8.1c11.1,2.2,27.8-1,33.3,7.3
			c2.6,4,4.9,9.3,3.5,13.8c-3.1,9.9-10.6,24.5-25.2,20.1c-2.9-0.9-13.8-1.5-19.3-3.8c-5.4-2.3-14.4-4.6-18.8-6.2
			c-2.5-0.9-5.1-1-6.3-0.8c-1.9,0.3-9.7-4.2-9.4-9c0-0.3-0.3-1.2-0.3-1.5C889.5,649.1,893.8,650.4,896.5,646.4z"/>
		<path fill="none" stroke="#000000" stroke-miterlimit="10" d="M921,656.2c0,0,12.7,1.8,17.2-4.5c4.5-6.3,26.2,6.3,23.5,10
			c-2.7,3.6-8.1,11.8-16.3,9c-8.1-2.7-21.7-3.6-24.4-3.6c-2.7,0-9,4.5-8.1-6.3C913.8,649.9,921,656.2,921,656.2z"/>
	</g>
	<g>
		<path fill="none" stroke="#000000" stroke-miterlimit="10" d="M724.7,740.2c0,0,8-12.7,16.2-26.8c8.2-14.1,16.8-29.6,17.8-35.2
			c2-11.3,17.3-18,42.7-4c12.7,7,35.5,21.7,53.8,35.7s31.9,27.3,26.2,31.7c-2.8,2.2-14.6,4.4-30.5,6.2c-15.9,1.8-35.9,3.2-55.4,3.7
			C756.7,752.4,720.3,749.9,724.7,740.2z"/>
		<path fill="none" stroke="#000000" stroke-miterlimit="10" d="M762.1,680.3c2-9.7,15.1-15.3,37.1-3.2
			c11.2,6.2,31.1,18.9,47.1,31.2c6.2,4.8,11.9,9.5,16.1,13.7c6.8,6.8,10.1,12.3,6.7,14.8c-2.6,1.9-12.8,3.8-26.6,5.4
			c-13.9,1.6-31.3,2.7-48.2,3c-33.6,0.7-65-1.7-61.5-10.3c-0.1-0.2,6.7-11.3,13.7-23.6c1.1-1.9,2.2-3.9,3.3-5.8
			C755.6,694.9,761.2,684.6,762.1,680.3z"/>
		<path fill="none" stroke="#000000" stroke-miterlimit="10" d="M765.5,682.4c1.9-8,12.8-12.7,31.6-2.4c9.7,5.3,26.8,16.2,40.5,26.7
			c5.6,4.2,10.6,8.5,14.2,12.2c5.8,6,8.4,10.7,5,13.1c-2.4,1.6-11,3.3-22.6,4.6c-11.9,1.3-26.7,2.2-41.1,2.4
			c-28.4,0.4-54.9-1.9-52.2-9.4c-0.3-0.5,5.3-10,11.1-20.5c0.9-1.7,1.8-3.4,2.7-5C759.7,695,764.6,686.1,765.5,682.4z"/>
		<path fill="none" stroke="#000000" stroke-miterlimit="10" d="M769,684.5c1.9-6.3,10.6-10,26-1.5c8.2,4.5,22.4,13.5,33.9,22.2
			c4.9,3.7,9.3,7.5,12.4,10.8c4.7,5.2,6.6,9.2,3.3,11.3c-2.1,1.3-9.2,2.8-18.7,3.8c-9.9,1.1-22.1,1.7-33.9,1.8
			c-23.2,0.1-44.8-2.1-42.8-8.5c-0.4-0.7,4-8.6,8.5-17.4c0.7-1.4,1.4-2.9,2.2-4.3C763.7,695,768,687.7,769,684.5z"/>
		<path fill="none" stroke="#000000" stroke-miterlimit="10" d="M772.4,686.6c0.9-4.9,8.3-7.3,20.4-0.7c6.7,3.6,18,10.8,27.2,17.7
			c4.3,3.2,8.1,6.5,10.5,9.4c3.6,4.3,4.9,7.7,1.7,9.6c-1.8,1.1-7.4,2.2-14.8,3.1c-7.9,0.9-17.6,1.3-26.8,1.1
			c-18-0.2-34.6-2.3-33.5-7.6c-0.6-0.9,2.7-7.3,6-14.3c0.5-1.2,1.1-2.4,1.6-3.5C767.7,695,771,689.1,772.4,686.6z"/>
		<path fill="none" stroke="#000000" stroke-miterlimit="10" d="M775.8,688.7c0.6-3.2,6.1-4.6,14.9,0.1c5.2,2.8,13.6,8.1,20.6,13.2
			c3.6,2.7,6.8,5.5,8.7,7.9c2.6,3.4,3.2,6.1,0,7.8c-1.6,0.8-5.6,1.7-10.9,2.3c-5.9,0.7-13,0.8-19.6,0.5c-12.8-0.5-24.5-2.4-24.2-6.7
			c-0.7-1.1,1.3-5.9,3.4-11.2c0.4-0.9,0.7-1.9,1.1-2.8C771.8,695.1,774.3,690.6,775.8,688.7z"/>
		<path fill="none" stroke="#000000" stroke-miterlimit="10" d="M779.2,690.8c0.3-1.6,3.8-2,9.3,0.9c3.7,1.9,9.3,5.3,14,8.7
			c3,2.2,5.5,4.4,6.8,6.5c1.6,2.6,1.5,4.6-1.7,6.1c-1.3,0.6-3.8,1.2-6.9,1.5c-4,0.4-8.4,0.3-12.5-0.1c-7.6-0.8-14.4-2.6-14.8-5.8
			c-0.8-1.4-0.1-4.6,0.8-8.1c0.2-0.7,0.3-1.4,0.5-2C775.8,695.1,777.5,692.1,779.2,690.8z"/>
		<path fill="none" stroke="#000000" stroke-miterlimit="10" d="M782.7,692.9c0,0,1.6,0.7,3.8,1.7c2.2,1.1,4.9,2.6,7.3,4.2
			c2.4,1.6,4.4,3.4,4.9,5.1c0.6,1.7-0.2,3.2-3.4,4.4s-6,1-8.4-0.1c-2.4-1-4.2-2.8-5.5-4.9c-1.2-2-1.9-4.3-1.7-6.2
			C779.9,695.2,780.8,693.6,782.7,692.9z"/>
	</g>
	<g>
		<path fill="none" stroke="#000000" stroke-miterlimit="10" d="M768.7,593.3c3.3,2.1,10.2-9.8,28.3-23c29.6-21.7,48.7-8.3,52-28.7
			c0.4-2.1-6.1-18.3-14.9-31.9c-8.8-13.6-19.9-24.6-28.7-16.4c0,0-19.8,18.1-34.4,39.6c-7.3,10.8-13.2,22.4-14.6,33.1
			C754.9,576.6,758,586.3,768.7,593.3z"/>
		<path fill="none" stroke="#000000" stroke-miterlimit="10" d="M826.7,512.2c7.6,10.6,13.2,24,12.7,26.2
			c-3.6,15.3-17.9,6.5-41.1,23.9c-5.4,4.1-9.8,8-13.4,11.3c-5.9,5.4-9.2,9-11.2,7.9c-8.3-4.8-10-13.1-8.6-22.1
			c1.4-8.5,6-17.9,11.8-26.6c11.3-16.9,26.5-31.3,26.9-31.8C810.2,493.4,819.5,502.1,826.7,512.2z"/>
		<path fill="none" stroke="#000000" stroke-miterlimit="10" d="M819.3,514.7c6.4,7.7,11.2,18.3,10.5,20.4
			c-3.3,10.4-13.4,6-30.2,19.1c-4.3,3.4-8,6.7-11.1,9.3c-4.7,4-7.7,6.9-9.6,6c-5.7-2.8-6.3-9.6-4.8-16.8c1.3-6.4,4.7-13.5,8.9-20.1
			c7.9-12.3,18.6-22.9,19.5-24C807.3,502.7,813.8,508.1,819.3,514.7z"/>
		<path fill="none" stroke="#000000" stroke-miterlimit="10" d="M811.9,517.2c5.4,4.8,9.1,12.5,8.2,14.7c-2.3,5.6-8.8,5.6-19.2,14.2
			c-3.2,2.7-6.2,5.3-8.9,7.4c-3.5,2.7-6,4.5-8.1,4.1c-2.7-1.7-2.6-6.1-1.1-11.5c1.1-4.3,3.4-9.1,6.1-13.6
			c4.7-7.7,10.8-14.5,12.1-16.2C804.3,512,808.3,514,811.9,517.2z"/>
		<path fill="none" stroke="#000000" stroke-miterlimit="10" d="M789,545.8c0,0,2.6-6.8,5.9-13.4s7.1-13.1,9.6-12.6c5,1,7.5,7,6,9
			c-0.8,1-4.1,5.4-8.3,9.4c-2.1,2-4.4,4-6.7,5.4C793.2,545,791,545.9,789,545.8z"/>
	</g>
	<g>
		<path fill="none" stroke="#000000" stroke-miterlimit="10" d="M774,99.2c0,0-12,31,30,40s94,27,118,43s96,0,127-20"/>
		<path fill="none" stroke="#000000" stroke-miterlimit="10" d="M802.2,98.5c0,0-5.5,23.5,30.3,30.6c33.6,6.7,74.7,19.1,97.1,32
			c2.8,1.6,5.3,3.1,7.7,4.7c23.2,15,87.3,4.6,112.6-11.8"/>
		<path fill="none" stroke="#000000" stroke-miterlimit="10" d="M830.5,97.8c0,0,1,15.9,30.6,21.2c29.8,5.3,66.5,15,85,26.2
			c2.3,1.4,4.5,2.8,6.7,4.1c22.5,14.1,78.5,9.3,98.2-3.5"/>
		<path fill="none" stroke="#000000" stroke-miterlimit="10" d="M858.8,97c0,0,7.5,8.3,30.9,11.8c26,3.9,58.3,10.9,72.9,20.4
			c1.9,1.2,3.7,2.4,5.7,3.6c21.7,13.1,69.8,13.9,83.8,4.7"/>
		<path fill="none" stroke="#000000" stroke-miterlimit="10" d="M887,96.2c0,0,73,3,92,17s65,22,74,16"/>
	</g>
</g>
</svg>
