<?xml version="1.0" encoding="utf-8"?>
<!-- Generator: Adobe Illustrator 18.0.0, SVG Export Plug-In . SVG Version: 6.00 Build 0)  -->
<!DOCTYPE svg PUBLIC "-//W3C//DTD SVG 1.1//EN" "http://www.w3.org/Graphics/SVG/1.1/DTD/svg11.dtd">
<svg version="1.1" id="Layer_1" xmlns="http://www.w3.org/2000/svg" xmlns:xlink="http://www.w3.org/1999/xlink" x="0px" y="0px"
	 viewBox="0 0 121.9 187" enable-background="new 0 0 121.9 187" xml:space="preserve">
<g>
	<path fill="#1A1A1A" d="M116.1,181.6c-8.7,1.2-19.6-3.2-28.6-4c-11-1-22.1-0.9-33.2,0.2c-9.9,1-19.7,2.7-29.4,5.1
		c-4.2,1-22.9,7.8-24.8,1.6c-2.1-6.9,11.4-11.4,16.2-13.7c4-2,8.1-3.7,12.4-5c5.4-1.6,4.6-3.1,6.2-8.7c2.2-3,3.4-1.1,2.3-5.9
		c-1.3-5.4-2.6-10.3-2.7-15.9c-0.2-11,1.3-22.2,2.2-33.2c-6.2,2.7-22.3,9.9-25.4-1.5C5.2,90.7,20.9,87.9,26.3,84
		c2.8-2.1,7-3.2,7.7-7.1c0.8-4,3.4-1.3,3.3-4.9c-0.2-4.5,4.7-1.9,1.4-7.5c-2.4-3.9-10.1-0.7-13.1-6.4c-2.4-4.6-6.8-6.1-4.9-12.1
		c1.3-4-0.6-6.8,2.2-9.8c4.3-4.7,4-7.7,5.5-13.4c2.2-5.5,5.2-10.9,9.6-15C46,0.2,59.1-1,69.6,0.6C75.5,2,81.5,3.2,86.3,7.1
		c1.8,1.4,10.3,14.7,10.6,14.7c0.8,1.8,1.5,5.2-0.4,6.7c-1.3-1.2-0.8-0.5-1.4-1.9c-0.5-3.7-2.5-8.4-4.8-11.4
		c-1.2-1.5-9.3-4.8-8.7-6.8c0.7-2.2,2.7,1.7,4.4,0.7c0.5,0-4.9-2.9-5.1-2.9c-3.6-1.6-7.4-2.6-11.2-3.2C64.2,2,56,1.4,50.8,4.4
		c-4.2,0-12.6,6.6-14.2,10.3c-1.3,3.2-1.8,7.1-2.6,10.4c-0.6,3.4,0.3,11-1.9,13.5c-1.2,0-5-2.2-5.5-1.9c-3.1,1.8-1,11.5-0.4,14.3
		c1,5.4,3.1,6.5,8.5,7.4c-1.8-4.1-7.3-14.4-3.5-18.4c1.4,7.3,4.5,16,9.4,21.7c5.9,7,14.8,6.5,23.2,6.3c6-0.1,13.8,1.1,18.1-4.1
		c3.7-4.5,2.1-12.1,7.3-15.2c2.8,4.2-2.3,10-2.1,14.3c0.3,8.6,10,15.4,14.7,21.6c3.7,9.9,7.8,20.2,5.7,31c-0.3,1.6-1.8,5.1-3.8,3.1
		c0.4-2.8,3.7-7.1,0.7-9.7c0.1,0.1-3.3,5.5-4.1,6.4c1.2,0,2.3-0.3,3.3-0.9c0.6,0.7,0.8,1.5,0.6,2.4c-6.3,6.3-11.8,0.2-13.6-5.9
		c-2.2-7.2-2.9-12.8-8.7-18.1c-4.4,21,3.4,41.9,9.9,61.2c1.1,3.3-1.1,8.4,2.7,9.1c5.1,1,10.1,2.6,14.8,4.9c4.7,2.3,9,5.4,12.6,9.2
		c-0.6,4.5,0.3,4.9-4.7,4.3c3.6-5-10.3-10.5-13.4-11.7c-3.8-1.4-7.8-2.6-11.6-3.5c-2.5-0.6-5.2,3.2-6.1-1c2.5-10.4,3-15.2-8.6-16.1
		c-12.5-1-3.8,14.6-6,18.9c-4.3,0.5-5-5-10.2-3.6c-3.6,1-6.6,2.9-9.4,1.7c-0.2-3.6-1.2-1.8,0.4-4.8c3.3-6.2-4.1-4.1-7-3.6
		c-3.9,0.7-8.4,1.1-8.8,6.1c-0.4,5.8-6.7,5.2-11.3,7c-1.7,0.6-22.2,9.8-21.5,11.6c1,2.8,6.1-2.4,8.4-0.6c0.9-3.8,13.8-3.4,17.5-3.8
		c11.6-1.4,22.6-4.4,34.3-4.8C70.2,172.9,117.7,174.9,116.1,181.6C115.2,181.7,117.1,177.5,116.1,181.6z M79.2,71.7
		c-3-1.2-14.5-0.4-17.2,1.4C65.1,75.2,77.7,76.3,79.2,71.7C76.3,70.5,77.9,75.9,79.2,71.7z M75.8,125.3c-2.2,1.6-9.6,1.3-9.3,4.3
		c0.6,5.1,1.6,10.2,4.5,14.6c2.6,5,7.3,1.9,11.5,2.7c1.4-0.2-2.9-34-5.9-34.5c-4.8-0.9-11.5,2.4-16.2,3.3c-3.4,0.7-7,1-10.5,0.4
		c-3-0.4-6.1-2.3-9.1-2.4c-5.7,0-1.6,3.7-1.9,5.7c3.5,1,6.4,2.9,8.6,5.9c-2,3.7-8-3.3-8.6,1c-0.1,6.4-0.9,13.2,0.7,19.5
		c1.2,4.8,6.3,4.4,10.3,4.4c1.2,0.2-1.7-19.7,3-22.6c2.9-1.8,6.3-1.2,9.4-1c1,0.1,3.7-2.7,4.4-3.3c3.5-0.3,7-0.6,10.5-1
		C76.8,123.5,76.3,124.4,75.8,125.3C75.3,125.7,76.3,124.4,75.8,125.3z M33.1,98.1c8.1,0.2,9.3-18.5,9.7-24.4
		c-3.6,4.8-6.4,8-11.3,11.6C26.7,88.8,32.2,93.7,33.1,98.1C36.5,98.1,32.8,96.6,33.1,98.1z M79.2,77c-2.2,0.2-15.8-0.9-16.2,1.4
		c-1.5,7.6-2.4,15.5-4.6,22.9c-0.3-2.2,1.6-23.4,0.5-23.6c-5.2-0.9-12.2-4.2-13.8,2.7c-1.9,7.9-3.3,16-5.7,23.8
		c-1.7,5.6,5.1,5.7,8.3,7.2c6.8,3.1,5.6-0.2,9.4-4.6c0.7,1.4,0.9,5.5,1.9,6.1c5.8,1,11.9-2.2,17.7-2.8c4.2-0.4-1.4-24.9,1.1-26.9
		c3.9-0.1,10.5,8.8,12.4,11.8c1,1.5,2.4,3.9,4.6,3.3c1.5-0.5,6.8-4.5,6.2-6.5c-2-6.8-5.8-9.1-10.8-13.5c-0.9-1.1-4-6.1-5.9-6
		C82.5,72.5,82.5,76.9,79.2,77C78.1,77.1,81.3,76.9,79.2,77z M54.8,132.2c-0.3,3.3-0.2,29,3.3,29c5.4,0.1,12.9-6.6,10-12.4
		c-1.1-2.1-5.1-20.3-6.3-19.9C59.4,129.9,55.3,127.6,54.8,132.2C54,141.7,55.3,127.6,54.8,132.2z M31.1,100.7
		c-1.6-1.3-3.9,0.6-4.5-2.2c-0.5-2.2-2.4-5.9-4.2-7.2c-0.6,3,1.8,7.7,2.7,10.6C25.7,104.3,30.1,101.2,31.1,100.7
		C29.5,99.4,29.6,101.5,31.1,100.7z M22,103.9c0.1-0.1,1.1-0.4,1.1-0.6c-0.3-2.1-1.3-8.5-3.9-8.9c0.1,1.5-0.5,6.8-0.4,6.9
		C19.5,102.4,19.7,103.9,22,103.9C22.1,103.8,19.7,103.9,22,103.9z M95.6,112.4c2-1.1,9.5-6,8.5-8.6
		C101.7,104.8,93.2,109.5,95.6,112.4C99.2,110.4,95.3,112.1,95.6,112.4z M45,155c2.1-0.6,6.2,0.5,6.1-1.6c-0.1-1.4-10.1-1.1-10.1,0
		C40.9,156,43.6,154.2,45,155C47.2,154.4,43.6,154.2,45,155z M56.7,74.3c0.7-0.2,3.6,0.3,3.5-1.1c-0.1-2.2-9.1-0.6-10.1-0.6
		C52.5,73.2,54.8,73.8,56.7,74.3C58.3,73.8,54.8,73.8,56.7,74.3z M16.8,101.2c-1.1-2.2-2.1-4.4-3.4-6.3c-0.9,0.2-1.3,0.8-1.3,1.8
		c0.6,2.3,2.2,4,3.9,5.5C16.2,101.9,16.4,101.7,16.8,101.2C15.6,99,16.4,101.7,16.8,101.2z M94.2,103.7c1.3-1.2,2.5-2.3,3.6-3.3
		c-1.4-0.7-3.9,0.8-4.5,2.2C93.3,102.8,93.8,103.2,94.2,103.7C95.5,102.5,93.8,103.2,94.2,103.7z M103.7,100.2
		c-0.2-0.3-0.5-0.8-0.8-1.3c5.6-9.2-3.9,4.9-1.4,3.8C102.5,102.3,103.5,101.8,103.7,100.2C103.5,99.9,103.5,101.8,103.7,100.2z
		 M18.4,92.7c0.1,0,0.1-0.1,0.2-0.1c-0.1-0.2-0.2-0.2-0.3,0C18.4,92.6,18.4,92.7,18.4,92.7C18.5,92.7,18.4,92.7,18.4,92.7z"/>
	<path fill="#B0B0B0" d="M72.4,166.3c-0.3-0.3-0.6-0.7-0.9-1c1-1.7,0.5-4.2,3.2-4.6c-0.7-1.4-2.4,0.5-2.5-1.4
		c-0.1-1.2,6.4-2.1,7-2.2c3.2,0.7,6.4,1.4,2.9,5.6c-0.6,0.7-1.4,1.2-2.1,1.9c3,0.9,5,0.4,6.7,2.5c0.9,0.7,1.9,0.7,2.8-0.2
		c2-1.4,6.2,0.7,8.1,1.2c3.6,1,23.9,7.4,19.5,13.6c1.1,0-4.9-3.3-5.4-3.7c-4.5-3.8-10.4-4.9-16.1-5.1c-5.2-0.2-9.5-3.2-14.3-3.4
		C80.4,169.2,71.1,167,72.4,166.3C72.1,166,72.6,166.3,72.4,166.3z"/>
	<path fill="#1B1B1B" d="M104.7,35.7c6.8,3.9,1.1,11.2-1.2,16.2c-1.4,2.9-10.8,9.6-12.7,3.5c1.2-4,5.7,0.2,8.2-2.2
		c2-1.9,1.6-6.8,2-9.3c0.7-4.1,0.2-8-2-11.6c-0.2-1.5-3.2-0.9-1.9-2.8C101.7,29.3,101.8,32.9,104.7,35.7
		C110.8,39.2,102.7,33.8,104.7,35.7z"/>
	<path fill="#C2C2C2" d="M93.6,10.3C93.6,10.1,93.6,10.1,93.6,10.3L93.6,10.3z"/>
	<path fill="#C7C7C7" d="M104.2,116.8c-0.1,0.5-0.3,1-0.4,1.5c-0.2-0.2-0.3-0.3-0.5-0.5C104.3,117.4,104.6,117.1,104.2,116.8z"/>
	<path fill="#C2C2C2" d="M97.5,23.1c-0.2-0.5-0.4-0.9-0.6-1.4C97.1,22.2,97.3,22.7,97.5,23.1z"/>
	<path fill="#989898" d="M120.4,182c0.3-0.2,0.6-0.3,1-0.5C121,181.7,120.7,181.8,120.4,182z"/>
	<path fill="#808080" d="M11.1,100c0.1,0.2,0.2,0.4,0.4,0.6C11.3,100.4,11.2,100.2,11.1,100z"/>
	<path fill="#C7C7C7" d="M105.5,119.1c0.2-0.1,0.4-0.3,0.6-0.4C105.9,118.9,105.7,119,105.5,119.1z"/>
	<path fill="#C7C7C7" d="M103.8,118.6c0.2,0.2,0.3,0.4,0.5,0.5C104.1,118.9,103.9,118.8,103.8,118.6z"/>
	<path fill="#949494" d="M39.3,159c3.5-0.7,13.3-5.1,13.3,0.6c0,0.9-2.3,3.5-2.2,3.7c1.2,2.3,2.7,1.7-0.1,4.4c0-1.5-5.8,0.5-6.3,0.6
		c-4,0.9-1.9-3.9-6.4-2C37.3,163.3,41.5,161.5,39.3,159C43.3,158.2,41.9,161.9,39.3,159z"/>
	<path fill="#898989" d="M11,178.1c5.5-3.3,11.2-6.3,17.3-8.3c1.1-0.4,6-2.6,7-1.2c1,1.5,1.2,3.4,3.2,1c-0.4-0.1,5.7,1.6,5.3,1.5
		c-5.1,1.3-10.3,2.5-15.4,4c0.3,0.3,0.7,0.6,1,0.9c-1.5-0.6-7.2-0.5-8.9,0.2c-2.7,1.1-7.1,3-9.9,3C10.7,178.8,10.8,178.5,11,178.1
		C18.4,173.7,10.8,178.5,11,178.1z"/>
	<path fill="#6B6B6B" d="M86.1,165.3c-2.4,0.3-3.7-0.1-6-0.8c0.7-0.6,1.5-1.2,2.1-1.9c3.5-4.2,0.2-4.9-2.9-5.6
		c1.3-1.1,4.6-0.8,4-2.4c-0.8-2.4-6.6,0.2-8.5-1c2.9-1.5,7.3-0.9,9.5-3.3c-0.7-0.4-4.7,1-6.4,0.8c-5.3-0.5-4,4.2-7.3,4.5
		c0.4-4.2,1.6-7,7-6.5C89,150.1,88.6,154.9,86.1,165.3C85.3,165.4,86.8,162.2,86.1,165.3z"/>
	<path fill="#A3A3A3" d="M71.5,168.1c-0.5,1.6-6.3,1.8-7.8,2.3c1.9,0,3.2,0.8,3.9,2.6c-3.8,0.1-7.7,0.3-11.5,0.4
		c1.8-3.9-3-1.4-3.4-3.8c0.7-0.3,7.4-1.3,5.6-3.2c-1.1-1.2-2.6,0.2-3.9,0.7c0.7-2.9,4.4-2,6.7-2.6C66.6,163.1,67.3,168.6,71.5,168.1
		C70.6,170.9,69.7,168.3,71.5,168.1z"/>
	<path fill="#636363" d="M90.3,78.4c0.1-0.1-3.9,4.4-3.3,4.8c-1.3,1.7-3.8,2.8-2.4,5.7c-1.9-1.8-2.7-4.7-5.4-5.6
		c-0.8-2.7,4.6-4.2,0-6.3c3.3-0.1,3.3-4.4,5.2-4.6C86.3,72.2,89.3,77.3,90.3,78.4C89.6,79.2,89.1,77,90.3,78.4z"/>
	<path fill="#7C7C7C" d="M38.9,119.6c0.4-2-3.8-5.8,1.9-5.7c3.9,0,5.3,3.5,8.2,3.8c3.1,0.4,6.5,0.1,9,2.5
		C51.6,125.8,44.7,116,38.9,119.6C39.3,117.5,40.4,118.7,38.9,119.6z"/>
	<path fill="#8D8D8D" d="M49.9,150.4c0.9-6.9-1.3-13.8-0.3-20.7c0.2-1.3-10.1-3.1-10.7-3.2c0.6-4.3,6.6,2.7,8.6-1
		c0.5-1.2,11.3-2.4,12.5-1.4c-0.2,0.1-0.4,0.2-0.7,0.2c0,0.1,0.1,0.2,0.1,0.2c0.2-0.2,0.3-0.3,0.5-0.5c1.2,0.7,2.3,1.3,3.5,2
		c-1,1.9-9.8-0.8-12.3,3.6C49.4,132.8,51.1,150.6,49.9,150.4C50.9,143.5,51.2,150.6,49.9,150.4z"/>
	<path fill="#999999" d="M37.6,80.8c1.8-2.4,3.5-4.8,5.3-7.2C42.4,81,41,95,33.1,98.1c-1.7-7.7,5.2-8.4,6.2-15.4
		C38.8,83.3,38.1,82.7,37.6,80.8C38.6,79.4,38.2,81.5,37.6,80.8z"/>
	<path fill="#B1B1B1" d="M58.1,120.1c-2.2-2.1-11.3-1.5-11.5-4.4c6,0.7,11.3,0.7,17.3-0.7c2.3-0.6,14.3-5.4,13.9-0.2
		C73.3,115.8,60.7,116.1,58.1,120.1C55.5,117.7,58.6,119.4,58.1,120.1z"/>
	<path fill="#B1B1B1" d="M63.5,126c-2.2-1.2-4.5-3.3-7.1-2.3c-1.9,0.7-8.2,0.2-8.9,1.8c-2.1-2.9-5.1-4.9-8.6-5.9
		c3.7-2.3,10.1,2.6,14.1,2.5c3.8-0.1,11.1-4.6,13.7,1.4C65.7,124.3,64.6,125.2,63.5,126C62.3,125.3,64.6,125.2,63.5,126z"/>
	<path fill="#8D8D8D" d="M32.2,38.6c-4.3,5.9-0.1,13.8,2.6,19.7c-1.1-0.2-2.1-0.3-3.2-0.5c0.9-0.5-4.6-14.4-5.4-17.1
		c-0.1,2.8-0.2,5.7-0.3,8.5c-0.1-2.7-2-10.8,0.8-12.5C27.2,36.4,31,38.6,32.2,38.6C31.9,39.1,31.2,38.6,32.2,38.6z"/>
	<path fill="#CACACA" d="M52.8,169.6c0.3,2,5.1,0,3.4,3.8c-1.4,0.6-9.3,1.6-10.4,0.7c-3.9-3.2-13.4,4.5-17.4,1
		C36.5,172.6,44.8,172,52.8,169.6C53.1,171.6,51.2,170.1,52.8,169.6z"/>
	<path fill="#565656" d="M38.4,169.6c-2.8,3.5-2.4-1.6-3.9-1.5c2.9-1,1.4-3.9,2.4-5.8c0.6,2.6,0.4,1.4,0.8,4c4.4-1.9,1.5,1.2,4.9,2
		c2.5,0.6,4.9-1.3,7.8-0.7c-0.4,2.7-7.7,1.1-6.7,3.5c-1.7-0.5-3.8-1-5.5-1.6C38.3,169.6,38.4,169.6,38.4,169.6
		C35.6,173.1,38.4,169.6,38.4,169.6z M38,167.5C38,167.7,38.1,167.7,38,167.5L38,167.5z"/>
	<path fill="#BFBFBF" d="M73,126.9c-5.2,2.3-2.4,12.9-2,17.3c-2.9-4.4-3.9-9.6-4.5-14.6C66.1,126,70.8,128,73,126.9
		C67.9,129.2,70.8,128,73,126.9z"/>
	<path fill="#C7C7C7" d="M25.9,49.2c0.2-2.8,0.2-5.7,0.3-8.5c0.7,2.7,6.3,16.6,5.4,17.1C26.4,57.1,26.8,52.7,25.9,49.2
		C25.9,48.9,26.8,52.7,25.9,49.2z"/>
	<path fill="#696969" d="M77.3,122.6c2.6,0.5,0.4-1.9,1.4-2.4c0.6,3.1,6.8,26.5,3.8,26.8c-0.8-3.7-1.6-22.8-6.7-21.6
		C76.3,124.4,76.8,123.5,77.3,122.6C79.9,123,76.8,123.5,77.3,122.6z"/>
	<path fill="#4C4C4C" d="M90.7,55.4c-0.5,0-0.9,0-1.4,0c0.2-1.5,0.3-2.9,0.5-4.4c0.3,0.5,0.5,1,0.8,1.4c1.7-1.6,3.6-10.6,3.5-10.6
		c0,3.2-0.1,6.2,0.6,9.4c0.6-1.3,3.9-3.9,5.7-4.5c0,2,0.1,4.9-1.5,6.5C96.4,55.5,91.9,51.3,90.7,55.4C90.2,55.4,91.1,54.1,90.7,55.4
		z M100,52.4c-1.2-0.9-2-0.7-2.6,0.6C98.3,53.7,99.2,53.5,100,52.4C99.1,52.1,99.1,53,100,52.4z"/>
	<path fill="#BBBBBB" d="M98.5,95.3c0.3-5.1-3.5-8.9-4.4-13.6c4.4,1.9,5.8,6,7,10.2C101.7,94,99.5,94.3,98.5,95.3
		C98.8,90.2,99.5,94.3,98.5,95.3z"/>
	<path fill="#737373" d="M44.6,82.2c-1.2,8.9-3.1,17.9-3.3,26.9C35.8,106,43.5,86.9,44.6,82.2C43.5,89.9,43.2,88.4,44.6,82.2z"/>
	<path fill="#1C1C1C" d="M70.5,155.7c2.4-0.2,11.9-3.6,12.7-1.1c1.1,3.3-11.7,2.8-13.1,2.5C70.2,156.7,70.4,156.2,70.5,155.7
		C71,155.7,70.4,156.2,70.5,155.7z"/>
	<path fill="#838383" d="M31.1,100.7c-1,0.5-5.3,3.6-6.1,1.2c-0.9-2.9-3.4-7.6-2.7-10.6c1.5,1,2.6,3.3,3.4,4.9
		C27.8,100.5,28.1,98.3,31.1,100.7C29.6,101.5,29.5,99.4,31.1,100.7z"/>
	<path fill="#555555" d="M71.6,74.5c-3.2-0.4-6.6,0.6-9.6-1.4c2.6-1.8,14.2-2.6,17.2-1.4C76.2,71.4,73.8,72.7,71.6,74.5
		C68.4,74.1,73.8,72.7,71.6,74.5z"/>
	<path fill="#898989" d="M43.8,171.1c-0.1-3.7,6.1,0.5,6.7-3.4c0,0,0,0,0,0c2.6,1.8,6.1-3.3,8.1-1.2C60.3,168.4,46.2,171,43.8,171.1
		C43.7,169,45.2,171.1,43.8,171.1z M56.4,167.2c-0.1,0.1-0.1,0.2,0.1,0.3c0-0.1,0.1-0.2,0.1-0.3C56.6,167.2,56.5,167.2,56.4,167.2
		C56.4,167.3,56.5,167.2,56.4,167.2z"/>
	<path fill="#606060" d="M95.6,112.4c-2.4-2.9,6.1-7.7,8.5-8.6C105.1,106.4,97.6,111.3,95.6,112.4C95.3,112.1,99.2,110.4,95.6,112.4
		z"/>
	<path fill="#D0D0D0" d="M45,155c-1.4-0.7-4.1,1.1-4-1.6c0.1-1.1,10.1-1.4,10.1,0C51.3,155.4,47.2,154.4,45,155
		C43.6,154.2,47.2,154.4,45,155z"/>
	<path fill="#CACACA" d="M44.2,7.9c-1.8,4-5.1,6.7-8.2,9.5C36.6,12.4,40.1,9.9,44.2,7.9z"/>
	<path fill="#AFAFAF" d="M84.5,88.9c-1.4-2.8,1.1-4,2.4-5.7c0.1,3.1-0.1,6.2,1.4,9.1C86.4,91.9,85.6,90.2,84.5,88.9
		C83.1,86.1,85.6,90.2,84.5,88.9z"/>
	<path fill="#989898" d="M79.2,77c4.6,2.1-0.6,4.2,0,6.3c-0.4,0-0.9,0-1.3,0c0.3-2.3,0.2-4.5-2.1-5.9C76.9,77.2,78.1,77.1,79.2,77
		C83.8,79.1,78.1,77.1,79.2,77z"/>
	<path fill="#555555" d="M56.7,74.3c-1.9-0.5-4.2-1.1-6.6-1.7c1-0.1,10-1.7,10.1,0.6C60.3,74.5,57.4,74,56.7,74.3
		C54.8,73.8,58.3,73.8,56.7,74.3z"/>
	<path fill="#ACACAC" d="M94.2,30.5c1.1-0.7,1.4-1.7,1.3-2.9c1.6,1.5,5.3,8.7,0.5,9.1C95.1,34.7,97.4,31.7,94.2,30.5
		C95.2,29.8,97.4,31.7,94.2,30.5z"/>
	<path fill="#6B6B6B" d="M70.1,157.2c1.4,0.3,2.9,0.6,4.3,0.9c-0.8,0.3-1.6,0.6-2.3,1.2c0.2,1.9,1.9,0,2.5,1.4
		c-2.7,0.3-2.2,2.8-3.2,4.6C70.5,162.7,69.9,160,70.1,157.2C71.5,157.5,69.9,160,70.1,157.2z"/>
	<path fill="#989898" d="M93.6,41.9c0.1,4.3,0.3,7.4-3,10.5c-1.6-2.9,0.2-1.2,0.2-3.8c0.2-0.5,0.4-0.7,0.5-0.5
		C92.7,47.1,92.8,43.6,93.6,41.9C93.6,45.1,93.1,42.9,93.6,41.9z"/>
	<path fill="#BCBCBC" d="M66.8,2.5c-4.1,2.1-8.3,1.1-12.6,0.9C58.3,2.3,62.5,1.9,66.8,2.5z"/>
	<path fill="#A9A9A9" d="M71.6,74.5c2.2-1.8,4.6-3.1,7.6-2.8C77.9,75.9,74.2,73.8,71.6,74.5z"/>
	<path fill="#5C5C5C" d="M33.1,98.1c2.5-0.9,2.6-4.6,5.7-4.8C38.3,96.5,36.5,98.1,33.1,98.1z"/>
	<path fill="#CDCDCD" d="M39.3,159c2.5,2.9-1.5,3.5-1.9,5.4C39.7,157.5,34.3,165,39.3,159C41.9,161.9,38.7,159.8,39.3,159z"/>
	<path fill="#606060" d="M94.2,103.7c-0.4-0.5-0.9-0.9-0.9-1.1c0.5-1.4,3.1-2.9,4.5-2.2C96.7,101.5,95.5,102.5,94.2,103.7
		C93.8,103.2,95.5,102.5,94.2,103.7z"/>
	<path fill="#B6B6B6" d="M59,112.9c3.2-0.5,6.4-0.9,9.6-1.4C65.6,112.7,62.4,113.5,59,112.9z"/>
	<path fill="#989898" d="M103.7,100.2c-0.2,1.6-1.2,2.1-2.2,2.5c-2.5,1.1,7-13,1.4-3.8C103.2,99.4,103.5,99.9,103.7,100.2
		C103.5,101.8,103.5,99.9,103.7,100.2z"/>
	<path fill="#565656" d="M54.3,167.2c-1.2,0.7-2.5,1.4-3.9,0.4C51.4,165.8,52.7,165.7,54.3,167.2C53,167.9,53.5,166.9,54.3,167.2z"
		/>
	<path fill="#626262" d="M12.5,180.2c1.1-0.3,2.2-0.6,3.4-0.9C14.9,180.2,13.8,180.6,12.5,180.2z"/>
	<path fill="#B6B6B6" d="M58.1,108.6c0.2,1.4,0.4,2.8,0.5,4.2C58.4,111.4,58.3,110,58.1,108.6z"/>
	<path fill="#7D7D7D" d="M100.3,175.8c0.8,0.1,1.6,0.3,2.4,0.4C101.9,176.1,101.1,175.9,100.3,175.8z"/>
	<path fill="#B1B1B1" d="M59.5,126.3c0.5-0.9,0.9-0.9,1.4,0C60.5,126.3,60,126.3,59.5,126.3z"/>
	<path fill="#949494" d="M37.3,161.3c0,1,0,2,0.1,3C36.7,163.3,36.7,162.3,37.3,161.3C37.4,162.3,37.2,161.7,37.3,161.3z"/>
	<path fill="#7D7D7D" d="M67.6,173.1c0.8,0.1,1.6,0.2,2.5,0.3C69.3,173.3,68.5,173.2,67.6,173.1z"/>
	<path fill="#7C7C7C" d="M50,116.2c-0.7-0.1-1.3-0.2-2-0.3C48.7,116,49.3,116.1,50,116.2z"/>
	<path fill="#737373" d="M18.5,92.7c0,0-0.1-0.1-0.1-0.1c0.1-0.1,0.2-0.1,0.3,0C18.6,92.6,18.5,92.7,18.5,92.7
		C18.4,92.7,18.5,92.7,18.5,92.7z"/>
	<path fill="#B0B0B0" d="M109.8,177.3c0.4,0.1,0.7,0.2,1.1,0.3C110.5,177.5,110.2,177.4,109.8,177.3z"/>
	<path fill="#ACACAC" d="M95.5,27.5c-0.1-0.3-0.3-0.7-0.4-1C95.2,26.9,95.4,27.2,95.5,27.5z"/>
	<path fill="#626262" d="M7.7,179.7c-0.2,0.1-0.4,0.2-0.6,0.4C7.4,180,7.6,179.9,7.7,179.7z"/>
	<path fill="#BCBCBC" d="M51.4,4.1c-0.2,0.1-0.4,0.2-0.6,0.3C51,4.3,51.2,4.2,51.4,4.1z"/>
	<path fill="#ACACAC" d="M98.8,31.9c-0.1-0.1-0.3-0.3-0.4-0.4C98.5,31.6,98.6,31.7,98.8,31.9z"/>
	<path fill="#ACACAC" d="M99.3,32.8c-0.1-0.2-0.2-0.4-0.3-0.6C99,32.4,99.2,32.6,99.3,32.8z"/>
	<path fill="#1B1B1B" d="M59,64.9c-17.1,0.9-20.9-15.1-20.5-28.7C39,19.1,67,15.4,79.2,21.4c-0.7,3.6-12.7,0.7-15.4,0.8
		c-7.5,0.3-12.7,1.9-18.5,6.3c12.2-4.7,24.9-4.5,37-0.5c8.8,2.9,4.1,20.2,0.7,26.3C77.6,63.9,68.4,63.7,59,64.9
		C46.6,65.6,61.9,64.5,59,64.9z M47.8,30.8c-7.2,2.7-7.7,8-6.3,15.1c0.1,0.6,8.9-7,10.2-7.9c5.1-3.7,11.8-5.4,16.6-9.2
		C63.3,26.1,52.8,28.7,47.8,30.8C45.4,31.6,48,30.7,47.8,30.8z M54.7,41.4c-5.3,2.9-15.7,7.2-9.1,13.9c2.2,6.1,8.4-4.2,10.6-6.3
		c4.1-3.9,9-7.8,14.5-9.5c-1.9,2.1-22.4,19.9-20.5,21.6c2.8,2.5,18.2-15.1,21.1-17.3c1.9-1.4,18.6-8.5,10.6-12.4
		C73.9,27.7,60.7,36.5,54.7,41.4C53.2,42.3,58.6,38.2,54.7,41.4z M59.2,61.3c12.9-1.1,23.5-4.8,24-19.5c-10,2.3-20,11.4-26.2,19.2
		C58.2,61.2,59.2,61.3,59.2,61.3C76.4,59.9,59.2,61.3,59.2,61.3z"/>
	<path fill="#606060" d="M77.9,20.7c-11.3-0.8-22.9-3.4-33.3,3.9C51.3,14.5,68.4,16.7,77.9,20.7C66.5,19.9,76.4,20.1,77.9,20.7z"/>
	<path fill="#C7C7C7" d="M73.4,18.9c-9.5-2.2-18.8-2.3-27.3,3.5C51.4,13.7,65.6,13,73.4,18.9C63.9,16.7,66.7,13.8,73.4,18.9z"/>
	<path fill="#212121" d="M96,36.6c-0.2,4.7,0.5,10.3-1.4,14.6c-0.9-4.6-2.5-16.6-0.4-20.7C97.4,31.7,95.1,34.7,96,36.6
		C95.9,40.8,95.1,34.7,96,36.6z"/>
	<path fill="#989898" d="M94,30.8c0,3.7,0,7.3,0,11c-0.1,0-0.3,0.1-0.4,0.1C93.7,38.2,93.9,34.5,94,30.8C94,34.5,93.9,34.5,94,30.8z
		"/>
	<path fill="#787878" d="M67.7,64.5c2.3-0.8,4.5-1.6,6.8-2.3C72.5,63.9,70.8,66.1,67.7,64.5z"/>
	<path fill="#787878" d="M59,64.9c2.9-0.4,5.7-1.3,8.7-0.4C64.9,66.3,61.9,64.8,59,64.9z"/>
	<path fill="#8D8D8D" d="M45.1,127.8c-0.2,0.2-0.3,0.3-0.5,0.2C44.8,128,45,127.9,45.1,127.8C45.2,127.9,45.1,127.8,45.1,127.8z"/>
	<path fill="#AFAFAF" d="M86.9,83.2c0.5-0.8,0.9-1.6,1.4-2.5C88.3,81.8,88.2,82.8,86.9,83.2z"/>
	<path fill="#C5C5C5" d="M73.4,155.6c-0.4,0-0.9,0-1.3,0c0.2-3.7,2.4-4.7,5.7-4.3c1.7,0.2,5.7-1.2,6.4-0.8c-2.2,2.3-6.6,1.8-9.5,3.3
		c0.5,0.3,1,0.6,1.5,0.9C75.3,154.8,74.3,155.3,73.4,155.6C72.9,155.6,73.7,155.5,73.4,155.6z"/>
	<path fill="#B1B1B1" d="M60,124c-0.2,0.2-0.3,0.3-0.5,0.5c0-0.1-0.1-0.2-0.1-0.2C59.6,124.2,59.8,124.1,60,124
		C60,124,60,124,60,124z"/>
	<path fill="#898989" d="M48,171C48,171,48,171,48,171C48,171,48,171,48,171z"/>
	<path fill="#949494" d="M38,167.5C38.1,167.7,38,167.7,38,167.5L38,167.5z"/>
	<path fill="#898989" d="M38.4,169.6c-0.1,0-0.1,0-0.2,0C38.3,169.6,38.4,169.6,38.4,169.6z"/>
	<path fill="#C8C8C8" d="M100,52.4c-0.8,1.1-1.7,1.3-2.6,0.6C98,51.7,98.9,51.5,100,52.4C99.1,53,99.1,52.1,100,52.4z"/>
	<path fill="#6B6B6B" d="M73.4,155.6c0.3-0.1,0.7-0.2,1-0.3C74.1,155.3,73.7,155.5,73.4,155.6z"/>
	<path fill="#6B6B6B" d="M74.8,155.1c0.3-0.1,0.7-0.3,1-0.4C75.5,154.8,75.2,155,74.8,155.1z"/>
	<path fill="#A3A3A3" d="M56.4,167.2c0.1,0,0.1,0,0.2,0c0,0.1-0.1,0.2-0.1,0.3C56.3,167.4,56.3,167.3,56.4,167.2
		C56.5,167.2,56.4,167.3,56.4,167.2z"/>
	<path fill="#898989" d="M10.1,179.6c0.2-0.1,0.3-0.3,0.5-0.4C10.4,179.3,10.2,179.5,10.1,179.6z"/>
	<path fill="#878787" d="M59.2,61.3c0,0-1.1-0.1-2.1-0.3c6.2-7.8,16.2-16.9,26.2-19.2C82.7,56.5,72.1,60.2,59.2,61.3
		C59.2,61.3,76.4,59.9,59.2,61.3z"/>
	<path fill="#848484" d="M49,30.4c4.9-1.8,14.5-4.1,19.3-1.7c-4,3.2-9.8,4.6-14.2,7.5c-1.6,1.1-12.5,9.6-12.5,9.6
		c-0.7-3.6-1.3-7.2,0.1-10.7c0.5,0.9-1,2.4,0.6,2.9c4.1,1.3,2.4-2.5,2.4-3.8C44.7,32.5,49.1,33.6,49,30.4C54.8,28.3,49,31.6,49,30.4
		z"/>
	<path fill="#B8B8B8" d="M57.1,42.4c-2.4,1.8-4.8,3.5-7.2,5.3c-1.5,1.1-2.9,5.6-4.3,7.7C38.6,49.1,52,40.3,57.1,42.4
		C54.7,44.2,56.3,42.1,57.1,42.4z"/>
	<path fill="#A7A7A7" d="M59.9,49.5c2.2,1.7,6.7-2.7,8.8-3.7C66.4,48,53,63.8,50.1,61.2C48.8,60,58.7,50.7,59.9,49.5
		C62.4,51.4,57.1,52.5,59.9,49.5z"/>
	<path fill="#ADADAD" d="M49,30.4c0.2,3.2-4.3,2.1-4.3,3.9c0,1.3,1.6,5.1-2.4,3.8C37.8,36.5,47.3,30.7,49,30.4
		C49,31.6,48.8,30.4,49,30.4z"/>
	<path fill="#7B7B7B" d="M57.1,42.4c-0.8-0.3-1.6-0.6-2.4-1c3.9-3.2,8.2-5.7,12.9-7.2C64.5,37.4,59.7,38.7,57.1,42.4z"/>
	<path fill="#828282" d="M71.1,24.6c0.6,0.2,1.3,0.3,1.9,0.5C72.4,24.9,71.7,24.7,71.1,24.6z"/>
	<path fill="#696969" d="M74.4,25.5c0.6,0.2,1.3,0.4,1.9,0.5C75.7,25.9,75.1,25.7,74.4,25.5z"/>
	<path fill="#828282" d="M53.3,23.8c-0.3,0.1-0.7,0.3-1,0.4C52.7,24,53,23.9,53.3,23.8z"/>
	<path fill="#696969" d="M73.4,25.2c0.3,0.1,0.7,0.2,1,0.3C74.1,25.4,73.8,25.3,73.4,25.2z"/>
	<path fill="#848484" d="M48.5,30.5c-0.2,0.1-0.5,0.2-0.7,0.3C48,30.7,48.3,30.6,48.5,30.5z"/>
	<path fill="#1B1B1B" d="M45.6,55.4c2.3-3.3,6.4-10.2,11.3-10.1C53.2,48.8,49.5,52.1,45.6,55.4C46.8,53.6,47.7,53.6,45.6,55.4z"/>
	<path fill="#B8B8B8" d="M50.9,48.6c-0.2,0.1-0.3,0.3-0.5,0.4C50.5,48.9,50.7,48.8,50.9,48.6z"/>
	<path fill="#B8B8B8" d="M50.3,49.1c-0.2,0.1-0.3,0.3-0.5,0.4C50,49.4,50.2,49.2,50.3,49.1z"/>
	<path fill="#B8B8B8" d="M49.8,49.5c-0.1,0.1-0.3,0.3-0.4,0.4C49.5,49.8,49.7,49.7,49.8,49.5z"/>
</g>
</svg>
