<?xml version="1.0" encoding="utf-8"?>
<!-- Generator: Adobe Illustrator 18.0.0, SVG Export Plug-In . SVG Version: 6.00 Build 0)  -->
<!DOCTYPE svg PUBLIC "-//W3C//DTD SVG 1.1//EN" "http://www.w3.org/Graphics/SVG/1.1/DTD/svg11.dtd">
<svg version="1.1" id="Layer_1" xmlns="http://www.w3.org/2000/svg" xmlns:xlink="http://www.w3.org/1999/xlink" x="0px" y="0px"
	 viewBox="0 0 182 145.2" enable-background="new 0 0 182 145.2" xml:space="preserve">
<g>
	<line fill="none" stroke="#F9E3D1" stroke-width="2" stroke-miterlimit="10" x1="5.5" y1="11.4" x2="7.5" y2="11.2"/>
	
		<line fill="none" stroke="#F9E3D1" stroke-width="2" stroke-miterlimit="10" stroke-dasharray="4.197,4.197" x1="11.6" y1="10.9" x2="107.8" y2="3.1"/>
	<line fill="none" stroke="#F9E3D1" stroke-width="2" stroke-miterlimit="10" x1="109.8" y1="3" x2="111.8" y2="2.8"/>
	<path fill="#F9E3D1" d="M5.5,11.4c0.1,1.4-1,2.7-2.5,2.8S0.1,13.3,0,11.8C-0.1,10.4,1,9.2,2.5,9C4.1,8.9,5.4,10,5.5,11.4"/>
	
		<ellipse transform="matrix(0.9968 -8.041337e-02 8.041337e-02 0.9968 -0.9248 0.2585)" fill="none" stroke="#F9E3D1" stroke-miterlimit="10" cx="2.7" cy="11.6" rx="2.7" ry="2.6"/>
	<path fill="#F9E3D1" d="M117.3,2.4c0.1,1.4-1,2.7-2.5,2.8s-2.8-0.9-2.9-2.4c-0.1-1.4,1-2.7,2.5-2.8C115.9-0.1,117.2,0.9,117.3,2.4"
		/>
	
		<ellipse transform="matrix(0.9968 -8.041337e-02 8.041337e-02 0.9968 0.163 9.2221)" fill="none" stroke="#F9E3D1" stroke-miterlimit="10" cx="114.6" cy="2.6" rx="2.7" ry="2.6"/>
	<line fill="none" stroke="#F9E3D1" stroke-width="2" stroke-miterlimit="10" x1="88.4" y1="129.8" x2="88.4" y2="127.8"/>
	
		<line fill="none" stroke="#F9E3D1" stroke-width="2" stroke-miterlimit="10" stroke-dasharray="4.399,4.399" x1="88.3" y1="123.6" x2="87.7" y2="75.2"/>
	<path fill="none" stroke="#F9E3D1" stroke-width="2" stroke-miterlimit="10" d="M69.4,140l-0.2-2 M87.6,73.1l0-2"/>
	
		<line fill="none" stroke="#F9E3D1" stroke-width="2" stroke-miterlimit="10" stroke-dasharray="3.953,3.953" x1="68.9" y1="134.1" x2="59.1" y2="12"/>
	<line fill="none" stroke="#F9E3D1" stroke-width="2" stroke-miterlimit="10" x1="58.9" y1="10.1" x2="58.7" y2="8.1"/>
	<path fill="#F9E3D1" d="M72.3,142.4c0.1,1.4-1,2.7-2.5,2.8s-2.8-0.9-2.9-2.4c-0.1-1.4,1-2.7,2.5-2.8
		C70.9,139.9,72.2,141,72.3,142.4"/>
	<path fill="none" stroke="#F9E3D1" stroke-width="2" stroke-miterlimit="10" d="M72,141.4c0.2,0.3,0.3,0.6,0.3,1c0,0.4,0,0.7-0.1,1
		 M68.4,140.3c0.3-0.1,0.6-0.2,1-0.3c0.4,0,0.7,0,1,0.1 M67.2,143.8c-0.2-0.3-0.3-0.6-0.3-1c0-0.4,0-0.7,0.1-1 M70.8,144.9
		c-0.3,0.1-0.6,0.2-1,0.3c-0.4,0-0.7,0-1-0.1"/>
	<polygon fill="#F9E3D1" points="92.8,66.5 90.2,68.8 90.7,72.2 87.7,70.4 84.6,71.9 85.3,68.5 82.9,66 86.4,65.7 88,62.7 
		89.4,65.8 	"/>
	<polygon fill="none" stroke="#F9E3D1" stroke-miterlimit="10" points="92.8,66.5 90.2,68.8 90.7,72.2 87.7,70.4 84.6,71.9 
		85.3,68.5 82.9,66 86.4,65.7 88,62.7 89.4,65.8 	"/>
	<line fill="none" stroke="#F9E3D1" stroke-width="2" stroke-miterlimit="10" x1="140.1" y1="55.8" x2="141.6" y2="57.1"/>
	
		<line fill="none" stroke="#F9E3D1" stroke-width="2" stroke-miterlimit="10" stroke-dasharray="4.472,4.472" x1="144.8" y1="59.8" x2="175.6" y2="85.7"/>
	<line fill="none" stroke="#F9E3D1" stroke-width="2" stroke-miterlimit="10" x1="177.3" y1="87.1" x2="178.8" y2="88.4"/>
	<path fill="#F9E3D1" d="M142.8,55.4c0.2,1.4-0.8,2.7-2.4,3c-1.5,0.2-2.9-0.8-3.1-2.2c-0.2-1.4,0.8-2.7,2.3-3
		C141.2,53,142.6,54,142.8,55.4"/>
	
		<ellipse transform="matrix(0.9897 -0.143 0.143 0.9897 -6.538 20.6046)" fill="none" stroke="#F9E3D1" stroke-miterlimit="10" cx="140.1" cy="55.8" rx="2.7" ry="2.6"/>
	<path fill="#F9E3D1" d="M181.7,87.7c0.2,1.4-0.8,2.7-2.4,3c-1.5,0.2-2.9-0.8-3.1-2.2c-0.2-1.4,0.8-2.7,2.3-3
		C180.1,85.3,181.5,86.3,181.7,87.7"/>
	
		<ellipse transform="matrix(0.9897 -0.143 0.143 0.9897 -10.7576 26.5053)" fill="none" stroke="#F9E3D1" stroke-miterlimit="10" cx="179" cy="88.1" rx="2.7" ry="2.6"/>
	<line fill="none" stroke="#F9E3D1" stroke-width="2" stroke-miterlimit="10" x1="119.7" y1="129.3" x2="121" y2="127.7"/>
	
		<line fill="none" stroke="#F9E3D1" stroke-width="2" stroke-miterlimit="10" stroke-dasharray="4.23,4.23" x1="123.6" y1="124.6" x2="175.4" y2="63.1"/>
	<line fill="none" stroke="#F9E3D1" stroke-width="2" stroke-miterlimit="10" x1="176.7" y1="61.5" x2="178" y2="60"/>
	<path fill="#F9E3D1" d="M182,57c0.2,1.4-0.8,2.7-2.4,3c-1.5,0.2-2.9-0.8-3.1-2.2c-0.2-1.4,0.8-2.7,2.3-3
		C180.4,54.6,181.8,55.6,182,57"/>
	
		<ellipse transform="matrix(0.9897 -0.143 0.143 0.9897 -6.363 26.2299)" fill="none" stroke="#F9E3D1" stroke-miterlimit="10" cx="179.3" cy="57.4" rx="2.7" ry="2.6"/>
	<path fill="#F9E3D1" d="M98.6,126.1c1.2,0.1,2.2,1.2,2.1,2.5c-0.1,1.3-1.2,2.3-2.4,2.2c-1.2-0.1-2.2-1.2-2.1-2.5
		C96.3,127,97.4,126,98.6,126.1"/>
	
		<ellipse transform="matrix(7.066157e-02 -0.9975 0.9975 7.066157e-02 -36.6211 217.5587)" fill="none" stroke="#F9E3D1" stroke-miterlimit="10" cx="98.4" cy="128.4" rx="2.4" ry="2.2"/>
	<path fill="#F9E3D1" d="M117.8,128.1c1.2,0.1,2.2,1.2,2.1,2.5s-1.2,2.3-2.4,2.2c-1.2-0.1-2.2-1.2-2.1-2.5
		C115.5,129,116.6,128,117.8,128.1"/>
	
		<ellipse transform="matrix(7.066157e-02 -0.9975 0.9975 7.066157e-02 -20.8367 238.5944)" fill="none" stroke="#F9E3D1" stroke-miterlimit="10" cx="117.6" cy="130.5" rx="2.4" ry="2.2"/>
	<path fill="#F9E3D1" d="M120.6,96.4c1.2,0.1,2.2,1.2,2.1,2.5s-1.2,2.3-2.4,2.2c-1.2-0.1-2.2-1.2-2.1-2.5
		C118.3,97.3,119.4,96.3,120.6,96.4"/>
	
		<ellipse transform="matrix(7.066157e-02 -0.9975 0.9975 7.066157e-02 13.435 211.8713)" fill="none" stroke="#F9E3D1" stroke-miterlimit="10" cx="120.4" cy="98.7" rx="2.4" ry="2.2"/>
	<path fill="#F9E3D1" d="M102,94.9c1.2,0.1,2.2,1.2,2.1,2.5s-1.2,2.3-2.4,2.2c-1.2-0.1-2.2-1.2-2.1-2.5
		C99.7,95.8,100.8,94.8,102,94.9"/>
	
		<ellipse transform="matrix(7.066157e-02 -0.9975 0.9975 7.066157e-02 -2.3304 192.0092)" fill="none" stroke="#F9E3D1" stroke-miterlimit="10" cx="101.9" cy="97.3" rx="2.4" ry="2.2"/>
	<line fill="none" stroke="#F9E3D1" stroke-width="2" stroke-miterlimit="10" x1="102.2" y1="98.8" x2="102" y2="100.7"/>
	
		<line fill="none" stroke="#F9E3D1" stroke-width="2" stroke-miterlimit="10" stroke-dasharray="4.029,4.029" x1="101.6" y1="104.4" x2="99.5" y2="124.4"/>
	<path fill="none" stroke="#F9E3D1" stroke-width="2" stroke-miterlimit="10" d="M102.2,98.8l0.9,1.8 M99.3,126.2l-0.2,2"/>
	
		<line fill="none" stroke="#F9E3D1" stroke-width="2" stroke-miterlimit="10" stroke-dasharray="4.876,4.876" x1="105.1" y1="104.5" x2="115.8" y2="126.4"/>
	<path fill="none" stroke="#F9E3D1" stroke-width="2" stroke-miterlimit="10" d="M117.9,128.3l0.2-2 M116.8,128.4l0.9,1.8"/>
	
		<line fill="none" stroke="#F9E3D1" stroke-width="2" stroke-miterlimit="10" stroke-dasharray="3.724,3.724" x1="118.5" y1="127.9" x2="120.4" y2="109.4"/>
	<line fill="none" stroke="#F9E3D1" stroke-width="2" stroke-miterlimit="10" x1="120.6" y1="102.7" x2="120.8" y2="100.7"/>
</g>
</svg>
