<?xml version="1.0" encoding="utf-8"?>
<!-- Generator: Adobe Illustrator 18.0.0, SVG Export Plug-In . SVG Version: 6.00 Build 0)  -->
<!DOCTYPE svg PUBLIC "-//W3C//DTD SVG 1.1//EN" "http://www.w3.org/Graphics/SVG/1.1/DTD/svg11.dtd">
<svg version="1.1" id="Layer_1" xmlns="http://www.w3.org/2000/svg" xmlns:xlink="http://www.w3.org/1999/xlink" x="0px" y="0px"
	 viewBox="0 0 612 792" enable-background="new 0 0 612 792" xml:space="preserve">
<g>
	<g>
		<line fill="none" stroke="#FFFFFF" stroke-width="2" stroke-miterlimit="10" x1="202.9" y1="106.5" x2="573.8" y2="543.2"/>
		<polyline fill="none" stroke="#FFFFFF" stroke-width="2" stroke-miterlimit="10" points="345.9,272.5 165.4,403.6 17.8,511 		"/>
		<line fill="none" stroke="#FFFFFF" stroke-width="2" stroke-miterlimit="10" x1="103.4" y1="450.3" x2="317.5" y2="703.3"/>
		<line fill="none" stroke="#FFFFFF" stroke-width="2" stroke-miterlimit="10" x1="398.6" y1="686.8" x2="161.4" y2="406.2"/>
		<line fill="none" stroke="#FFFFFF" stroke-width="2" stroke-miterlimit="10" x1="531" y1="605.2" x2="285.9" y2="316.6"/>
		<line fill="none" stroke="#FFFFFF" stroke-width="2" stroke-miterlimit="10" x1="529" y1="603.2" x2="163.4" y2="406.9"/>
		<polygon fill="none" stroke="#FFFFFF" stroke-width="2" stroke-miterlimit="10" points="52.7,376.6 73.1,387.1 93.5,376.6 
			89.6,399 105.4,415.4 83,418.7 73.1,439.1 62.6,418.7 40.2,414.8 56.7,399 		"/>
	</g>
	<g>
		<path fill="none" stroke="#231F20" stroke-width="15" d="M612,395c0,75.8-27.7,144.9-73.1,198.3c-56,65.9-139.7,108-233.2,108
			C137,700.7,0,563.7,0,395C0,225.7,137,88.7,306.3,88.7C475,88.7,612,225.7,612,395z"/>
		<line fill="none" stroke="#231F20" stroke-width="15" x1="202.9" y1="106.5" x2="573.8" y2="543.2"/>
		<polyline fill="none" stroke="#231F20" stroke-width="15" points="345.9,272.5 165.4,403.6 17.8,511 		"/>
		<line fill="none" stroke="#231F20" stroke-width="15" x1="103.4" y1="450.3" x2="317.5" y2="703.3"/>
		<line fill="none" stroke="#231F20" stroke-width="15" x1="398.6" y1="686.8" x2="161.4" y2="406.2"/>
		<line fill="none" stroke="#231F20" stroke-width="15" x1="531" y1="605.2" x2="285.9" y2="316.6"/>
		<line fill="none" stroke="#231F20" stroke-width="15" x1="529" y1="603.2" x2="163.4" y2="406.9"/>
		<polygon fill="none" stroke="#231F20" stroke-width="15" points="52.7,376.6 73.1,387.1 93.5,376.6 89.6,399 105.4,415.4 
			83,418.7 73.1,439.1 62.6,418.7 40.2,414.8 56.7,399 		"/>
	</g>
</g>
</svg>
